<?xml version="1.0" encoding="utf-8"?>
<!-- Generator: Adobe Illustrator 16.0.0, SVG Export Plug-In . SVG Version: 6.00 Build 0)  -->
<!DOCTYPE svg PUBLIC "-//W3C//DTD SVG 1.1//EN" "http://www.w3.org/Graphics/SVG/1.1/DTD/svg11.dtd">
<svg version="1.1" id="Layer_1" xmlns="http://www.w3.org/2000/svg" xmlns:xlink="http://www.w3.org/1999/xlink" x="0px" y="0px"
	 width="760px" height="960px" viewBox="0 0 760 960" enable-background="new 0 0 760 960" xml:space="preserve">
<circle fill="#47EDC7" cx="407.803" cy="499.076" r="268.692"/>
<g>
	<path fill="#4D0E8F" d="M431.537,219.169l-120.689-46.277c-4.593-1.761-9.792,0.553-11.554,5.15l-50.122,130.714
		c-1.761,4.594,0.557,9.791,5.15,11.552l130.714,50.121c4.594,1.762,9.793-0.553,11.554-5.147l46.278-120.692L431.537,219.169z"/>
	<path fill="#3E1277" d="M391.571,370.356l-88.128-196.99c-0.212,0.113-0.419,0.237-0.626,0.37
		c-0.023,0.017-0.047,0.029-0.071,0.046c-0.187,0.119-0.366,0.249-0.541,0.384c-0.044,0.031-0.088,0.066-0.131,0.101
		c-0.159,0.125-0.31,0.253-0.461,0.389c-0.057,0.056-0.118,0.11-0.173,0.167c-0.133,0.126-0.26,0.255-0.384,0.388
		c-0.073,0.08-0.14,0.159-0.208,0.236c-0.107,0.128-0.213,0.251-0.313,0.386c-0.08,0.104-0.156,0.213-0.23,0.322
		c-0.081,0.116-0.166,0.231-0.242,0.353c-0.09,0.143-0.172,0.292-0.253,0.442c-0.053,0.101-0.111,0.195-0.164,0.296
		c-0.125,0.255-0.246,0.519-0.352,0.794l-50.122,130.714c-1.761,4.594,0.557,9.791,5.152,11.553l130.712,50.121
		C387.225,371.269,389.544,371.174,391.571,370.356z"/>
	<path fill="#2E7868" d="M333.365,179.131l-17.294,45.103c-1.761,4.593,0.557,9.79,5.15,11.551l70.577,27.063
		c4.594,1.761,9.793-0.554,11.555-5.146l17.293-45.103L333.365,179.131z M395.634,246.598c-0.88,2.294-3.478,3.455-5.776,2.574
		l-17.54-6.726c-2.297-0.88-3.456-3.482-2.577-5.776l9.608-25.057c0.881-2.299,3.483-3.458,5.78-2.577l17.54,6.726
		c2.299,0.881,3.454,3.481,2.572,5.78L395.634,246.598z"/>
	<path fill="#D5D9D9" d="M334.166,177.043l-17.294,45.102c-1.761,4.593,0.557,9.791,5.15,11.552l70.577,27.062
		c4.594,1.762,9.793-0.553,11.554-5.146l17.294-45.102L334.166,177.043z M396.436,244.507c-0.882,2.299-3.479,3.459-5.777,2.578
		l-17.54-6.726c-2.297-0.881-3.456-3.482-2.575-5.781l9.608-25.057c0.88-2.294,3.481-3.454,5.778-2.573l17.54,6.725
		c2.298,0.882,3.453,3.481,2.574,5.776L396.436,244.507z"/>
	<path fill="#BCBFBF" d="M334.166,177.043l-17.294,45.102c-1.761,4.593,0.557,9.791,5.15,11.552l70.577,27.062
		c4.594,1.762,9.793-0.553,11.554-5.146l17.294-45.102L334.166,177.043z M396.436,244.507c-0.882,2.299-3.479,3.459-5.777,2.578
		l-17.54-6.726c-2.297-0.881-3.456-3.482-2.575-5.781l9.608-25.057c0.88-2.294,3.481-3.454,5.778-2.573l17.54,6.725
		c2.298,0.882,3.453,3.481,2.574,5.776L396.436,244.507z"/>
	<path fill="#ECF0F0" d="M382.127,289.319l-70.577-27.062c-4.593-1.761-9.793,0.553-11.557,5.151l-23.538,61.387l87.282,33.468
		l23.538-61.387C389.039,296.278,386.721,291.081,382.127,289.319z"/>
	<g>
		
			<rect x="305.64" y="295.268" transform="matrix(-0.9337 -0.358 0.358 -0.9337 548.0762 696.4813)" fill="#ADB0B0" width="65.748" height="4.471"/>
	</g>
	<g>
		
			<rect x="300.726" y="307.046" transform="matrix(-0.9337 -0.358 0.358 -0.9337 523.5436 715.4996)" fill="#ADB0B0" width="54.565" height="4.475"/>
	</g>
	<g>
		
			<rect x="295.762" y="319.993" transform="matrix(-0.9337 -0.358 0.358 -0.9337 509.3092 738.7572)" fill="#ADB0B0" width="54.565" height="4.474"/>
	</g>
	<path opacity="0.1" fill="#5D5D5D" enable-background="new    " d="M334.166,177.043l-17.294,45.102
		c-1.761,4.593,0.557,9.791,5.15,11.552l53.455,20.497l-32.959-73.948L334.166,177.043z"/>
	<polygon opacity="0.1" fill="#5D5D5D" enable-background="new    " points="276.456,328.795 333.251,350.574 298.232,272.001 	"/>
</g>
<rect x="344.508" y="675.157" fill="#5C26A3" width="94.65" height="49.579"/>
<rect x="344.508" y="675.157" fill="#3E1277" width="23.859" height="49.579"/>
<path fill="#4D0E8F" d="M502.202,723.537H274.568c-3.375,0-6.134,2.761-6.134,6.136v30.749c0,3.374,2.762,6.134,6.134,6.134h227.634
	V723.537L502.202,723.537z"/>
<path fill="#3E1277" d="M292.293,760.422V729.67c0-3.373,2.761-6.133,6.136-6.133h-23.861c-3.375,0-6.134,2.76-6.134,6.133v30.752
	c0,3.374,2.762,6.133,6.134,6.133h23.859C295.054,766.555,292.293,763.796,292.293,760.422z"/>
<path fill="#4D0E8F" d="M656.363,314.919H127.31c-3.375,0-6.137,2.762-6.137,6.137v349.17c0,3.375,2.762,6.135,6.137,6.135h374.893
	V492.657c0-4.641,3.772-8.419,8.416-8.419h151.877V321.056C662.495,317.681,659.736,314.919,656.363,314.919z"/>
<path fill="#FFFFFF" d="M148.107,615.009c0,2.027,1.655,3.681,3.679,3.681h350.417V492.657c0-4.641,3.772-8.419,8.416-8.419h124.947
	V375.085H148.107V615.009z"/>
<path fill="#D9EAFC" d="M171.969,615.009V375.085h-23.862v239.924c0,2.027,1.655,3.681,3.679,3.681h23.862
	C173.623,618.689,171.969,617.032,171.969,615.009z"/>
<circle fill="#5C26A3" cx="391.838" cy="647.414" r="16.563"/>
<path fill="#C3DDF4" d="M502.202,512.352h-64.244c-1.985,0-3.606,1.625-3.606,3.609v71.716c0,1.983,1.621,3.608,3.606,3.608h64.244
	V512.352z"/>
<path fill="#AEC1ED" d="M458.21,587.677v-71.716c0-1.984,1.624-3.609,3.608-3.609h-23.86c-1.985,0-3.606,1.625-3.606,3.609v71.716
	c0,1.983,1.621,3.608,3.606,3.608h23.86C459.834,591.285,458.21,589.66,458.21,587.677z"/>
<path fill="#C3DDF4" d="M510.618,484.238h56.06v-78.62c0-3.31-2.703-6.015-6.012-6.015H223.007c-3.308,0-6.015,2.705-6.015,6.015
	v79.996c0,3.308,2.707,6.013,6.015,6.013h279.267C502.785,487.473,506.33,484.238,510.618,484.238z"/>
<path fill="#AEC1ED" d="M240.854,485.612v-79.997c0-3.307,2.705-6.012,6.012-6.012h-23.859c-3.308,0-6.015,2.705-6.015,6.012v79.997
	c0,3.309,2.707,6.015,6.015,6.015h23.859C243.559,491.627,240.854,488.921,240.854,485.612z"/>
<path fill="#FFAF10" d="M631.885,346.209H151.786c-2.024,0-3.679,1.655-3.679,3.682v26.398h487.458v-26.398
	C635.565,347.865,633.909,346.209,631.885,346.209z"/>
<path fill="#FF9518" d="M175.647,346.209h-23.862c-2.024,0-3.679,1.655-3.679,3.682v26.398h23.859v-26.398
	C171.969,347.865,173.623,346.209,175.647,346.209z"/>
<g>
	<path fill="#EF288F" d="M327.411,531.394H226.194c-4.981,0-9.019-4.039-9.019-9.021c0-4.98,4.038-9.019,9.019-9.019h101.217
		c4.982,0,9.019,4.038,9.019,9.019C336.43,527.354,332.393,531.394,327.411,531.394z"/>
	<path fill="#EF288F" d="M327.411,560.839H226.194c-4.981,0-9.019-4.036-9.019-9.019c0-4.981,4.038-9.019,9.019-9.019h101.217
		c4.982,0,9.019,4.037,9.019,9.019C336.43,556.8,332.393,560.839,327.411,560.839z"/>
	<path fill="#EF288F" d="M327.411,590.286H226.194c-4.981,0-9.019-4.037-9.019-9.019c0-4.984,4.038-9.02,9.019-9.02h101.217
		c4.982,0,9.019,4.035,9.019,9.02C336.43,586.249,332.393,590.286,327.411,590.286z"/>
	<path fill="#EF288F" d="M406.847,531.394h-52.102c-4.979,0-9.019-4.039-9.019-9.021c0-4.98,4.04-9.019,9.019-9.019h52.102
		c4.979,0,9.019,4.038,9.019,9.019C415.865,527.354,411.826,531.394,406.847,531.394z"/>
	<path fill="#EF288F" d="M406.847,560.839h-52.102c-4.979,0-9.019-4.036-9.019-9.019c0-4.981,4.04-9.019,9.019-9.019h52.102
		c4.979,0,9.019,4.037,9.019,9.019C415.865,556.8,411.826,560.839,406.847,560.839z"/>
	<path fill="#EF288F" d="M406.847,590.286h-52.102c-4.979,0-9.019-4.037-9.019-9.019c0-4.984,4.04-9.02,9.019-9.02h52.102
		c4.979,0,9.019,4.035,9.019,9.02C415.865,586.249,411.826,590.286,406.847,590.286z"/>
</g>
<path fill="#5C26A3" d="M727.247,483.037c5.291,0,9.621,4.33,9.621,9.62v290.736c0,5.288-4.33,9.621-9.621,9.621H510.618
	c-5.29,0-9.62-4.333-9.62-9.621V492.657c0-5.29,4.33-9.62,9.62-9.62H727.247L727.247,483.037z"/>
<path fill="#FFFFFF" d="M527.108,755.236c-3.307,0-6.014-2.704-6.014-6.012V507.586c0-3.311,2.707-6.015,6.014-6.015H710.76
	c3.308,0,6.014,2.704,6.014,6.015v241.639c0,3.308-2.706,6.012-6.014,6.012H527.108z"/>
<path fill="#D9EAFC" d="M544.955,749.225V507.586c0-3.311,2.706-6.015,6.012-6.015h-23.858c-3.307,0-6.014,2.704-6.014,6.015
	v241.639c0,3.308,2.707,6.012,6.014,6.012h23.858C547.661,755.236,544.955,752.532,544.955,749.225z"/>
<path fill="#4D0E8F" d="M607.677,779.29c-3.307,0-6.014-2.708-6.014-6.016v-2.337c0-3.309,2.707-6.014,6.014-6.014h22.515
	c3.307,0,6.014,2.705,6.014,6.014v2.337c0,3.308-2.707,6.016-6.014,6.016H607.677z"/>
<path fill="#FFAF10" d="M716.773,524.77v-17.184c0-3.311-2.706-6.015-6.014-6.015H527.108c-3.307,0-6.014,2.704-6.014,6.015v17.184
	H716.773L716.773,524.77z"/>
<path fill="#FF9518" d="M550.967,501.571h-23.858c-3.307,0-6.014,2.704-6.014,6.015v17.184h23.86v-17.184
	C544.955,504.275,547.661,501.571,550.967,501.571z"/>
<g>
	<path fill="#EF288F" d="M659.923,634.755h-81.977c-4.979,0-9.02-4.037-9.02-9.02c0-4.981,4.04-9.02,9.02-9.02h81.977
		c4.979,0,9.019,4.038,9.019,9.02C668.941,630.718,664.901,634.755,659.923,634.755z"/>
	<path fill="#EF288F" d="M659.923,662.566h-81.977c-4.979,0-9.02-4.038-9.02-9.02c0-4.982,4.04-9.02,9.02-9.02h81.977
		c4.979,0,9.019,4.037,9.019,9.02C668.941,658.528,664.901,662.566,659.923,662.566z"/>
	<path fill="#EF288F" d="M659.923,690.374h-81.977c-4.979,0-9.02-4.038-9.02-9.019c0-4.982,4.04-9.019,9.02-9.019h81.977
		c4.979,0,9.019,4.036,9.019,9.019C668.941,686.336,664.901,690.374,659.923,690.374z"/>
</g>
<path fill="#C3DDF4" d="M698.094,595.46c0,3.309-2.705,6.013-6.013,6.013H545.788c-3.309,0-6.014-2.704-6.014-6.013v-49.596
	c0-3.309,2.705-6.013,6.014-6.013h146.293c3.308,0,6.013,2.704,6.013,6.013V595.46z"/>
<path fill="#AEC1ED" d="M563.635,595.46v-49.596c0-3.309,2.706-6.013,6.012-6.013h-23.858c-3.309,0-6.014,2.704-6.014,6.013v49.596
	c0,3.309,2.705,6.013,6.014,6.013h23.858C566.341,601.473,563.635,598.769,563.635,595.46z"/>
<path fill="#C3DDF4" d="M676.449,736.348c0,3.308-2.706,6.012-6.013,6.012H567.43c-3.308,0-6.011-2.704-6.011-6.012v-20.335
	c0-3.307,2.703-6.013,6.011-6.013h103.007c3.307,0,6.013,2.706,6.013,6.013V736.348L676.449,736.348z"/>
<path fill="#AEC1ED" d="M585.279,736.348v-20.335c0-3.307,2.706-6.013,6.014-6.013H567.43c-3.308,0-6.011,2.706-6.011,6.013v20.335
	c0,3.308,2.703,6.012,6.011,6.012h23.863C587.985,742.359,585.279,739.655,585.279,736.348z"/>
<path fill="#C3DDF4" d="M267.528,533.181H83.767c-13.593,0-24.611-9.529-24.611-21.286V201.819
	c0-11.757,11.018-21.287,24.611-21.287h183.762c13.593,0,24.61,9.53,24.61,21.287v310.076
	C292.139,523.651,281.121,533.181,267.528,533.181z"/>
<path fill="#FCC19C" d="M109.592,391.185v-49.736c0-34.886,28.281-63.166,63.167-63.166h7.532c34.886,0,63.167,28.28,63.167,63.166
	v49.736c0,36.966-29.967,66.933-66.933,66.933l0,0C139.559,458.117,109.592,428.15,109.592,391.185z"/>
<path fill="#DB9783" d="M180.291,278.282h-7.532c-2.917,0-5.781,0.215-8.593,0.597c30.819,4.194,54.574,30.6,54.574,62.569v49.736
	c0,32.741-23.515,59.974-54.574,65.774c4.007,0.749,8.135,1.158,12.359,1.158l0,0c36.966,0,66.933-29.967,66.933-66.933v-49.736
	C243.457,306.563,215.177,278.282,180.291,278.282z"/>
<g>
	<path fill="#AC695D" d="M226.139,389.284c-2.879-1.799-6.677-0.925-8.478,1.958c-0.085,0.134-9.319,13.516-40.507,13.516
		c-31.318,0-42.369-13.314-42.917-14.002c-2.051-2.672-5.876-3.2-8.575-1.172c-2.717,2.041-3.264,5.897-1.224,8.615
		c0.397,0.528,4.126,5.301,12.568,9.908c10.888,5.942,24.396,8.956,40.147,8.956c38.438,0,50.45-18.511,50.943-19.3
		C229.897,394.882,229.021,391.086,226.139,389.284z"/>
	<path fill="#AC695D" d="M191.957,368.368c0.806,0,1.626-0.159,2.414-0.495c0.061-0.025,6.174-2.578,13.954-1.809
		c3.386,0.341,6.395-2.134,6.73-5.515c0.335-3.382-2.133-6.395-5.515-6.73c-11.118-1.106-19.73,2.616-20.09,2.775
		c-3.097,1.362-4.496,4.963-3.153,8.067C187.301,366.982,189.573,368.368,191.957,368.368z"/>
	<path fill="#AC695D" d="M143.911,366.064c7.701-0.761,13.768,1.729,13.951,1.807c0.797,0.347,1.626,0.51,2.444,0.51
		c2.366,0,4.622-1.373,5.635-3.677c1.368-3.11-0.045-6.742-3.155-8.109c-0.361-0.159-8.969-3.882-20.091-2.775
		c-3.381,0.336-5.85,3.349-5.514,6.73C137.515,363.932,140.535,366.407,143.911,366.064z"/>
</g>
<g>
	<path fill="#EC5569" d="M116.608,205.035H83.794c-3.399,0-6.153,2.754-6.153,6.153v32.814c0,3.399,2.754,6.153,6.153,6.153
		c3.398,0,6.152-2.754,6.152-6.153v-26.662h26.662c3.399,0,6.152-2.754,6.152-6.153S120.007,205.035,116.608,205.035z"/>
	<path fill="#EC5569" d="M267.528,205.035h-32.814c-3.399,0-6.153,2.754-6.153,6.153s2.754,6.153,6.153,6.153h26.662v26.662
		c0,3.399,2.754,6.153,6.153,6.153c3.398,0,6.152-2.754,6.152-6.153v-32.814C273.681,207.789,270.927,205.035,267.528,205.035z"/>
	<path fill="#EC5569" d="M267.528,451.145c-3.399,0-6.153,2.754-6.153,6.152v26.662h-26.662c-3.399,0-6.153,2.754-6.153,6.152
		s2.754,6.153,6.153,6.153h32.814c3.398,0,6.152-2.755,6.152-6.153v-32.814C273.681,453.898,270.927,451.145,267.528,451.145z"/>
	<path fill="#EC5569" d="M116.581,483.959H89.919v-26.662c0-3.398-2.754-6.152-6.153-6.152s-6.153,2.754-6.153,6.152v32.814
		c0,3.398,2.754,6.153,6.153,6.153h32.814c3.399,0,6.153-2.755,6.153-6.153S119.98,483.959,116.581,483.959z"/>
</g>
<path fill="#AC695D" d="M254.759,334.119c-0.854-0.545-1.034-1.693-0.373-2.461c3.504-4.071,5.625-9.366,5.625-15.159
	c0-6.643-2.788-12.632-7.253-16.87c-0.562-0.533-0.656-1.393-0.23-2.04c4.177-6.353,4.63-15.371-1.806-23.968
	c-0.1-0.134-0.223-0.257-0.357-0.357c-8.203-6.136-16.787-6.004-23.072-2.351c-1.113,0.647-2.472-0.251-2.404-1.537
	c0.245-4.64-1.191-9.727-4.952-14.681c-0.1-0.131-0.222-0.252-0.354-0.351c-7.903-5.879-16.136-5.944-22.333-2.668
	c-0.805,0.425-1.787,0.13-2.213-0.673c-3.597-6.769-10.717-11.38-18.917-11.38c-8.349,0-15.577,4.781-19.107,11.753
	c-0.431,0.851-1.47,1.151-2.294,0.672c-6.265-3.644-14.812-3.794-22.998,2.292c-0.133,0.099-0.255,0.22-0.355,0.352
	c-3.763,4.954-5.2,10.043-4.955,14.685c0.068,1.286-1.291,2.184-2.403,1.537c-6.286-3.654-14.869-3.785-23.072,2.351
	c-0.133,0.1-0.256,0.223-0.356,0.357c-6.437,8.597-5.984,17.615-1.807,23.968c0.426,0.647,0.332,1.507-0.23,2.04
	c-4.466,4.238-7.253,10.228-7.253,16.87c0,5.792,2.12,11.088,5.624,15.159c0.661,0.768,0.481,1.916-0.373,2.462
	c-8.656,5.532-12.502,17.928-3.833,29.523c0.1,0.135,0.224,0.258,0.358,0.357c15.51,11.61,32.491,0.801,32.491-13.974
	c0-3.57-0.993-6.907-2.716-9.754c-0.519-0.856-0.173-1.952,0.75-2.342c5.533-2.337,9.973-6.751,12.341-12.27
	c0.255-0.595,0.86-0.961,1.508-0.947c0.123,0.002,0.247,0.004,0.37,0.004c5.571,0,10.683-1.96,14.688-5.227
	c0.624-0.51,1.531-0.484,2.116,0.071c5.603,5.32,13.172,8.589,21.509,8.589c8.136,0,15.547-3.109,21.108-8.204
	c0.574-0.525,1.445-0.553,2.061-0.077c3.929,3.038,8.854,4.848,14.204,4.848c0.124,0,0.247-0.001,0.37-0.004
	c0.648-0.012,1.253,0.352,1.509,0.947c2.364,5.507,6.792,9.917,12.312,12.257c0.937,0.397,1.289,1.509,0.764,2.381
	c-3.809,6.314-4.027,15.035,2.203,23.354c0.101,0.135,0.225,0.258,0.359,0.358c15.506,11.592,32.477,0.785,32.477-13.984
	C263.482,343.341,260.004,337.471,254.759,334.119z"/>
<path fill="#945B44" d="M254.759,334.119c-0.854-0.545-1.034-1.693-0.373-2.461c3.504-4.071,5.625-9.366,5.625-15.159
	c0-6.643-2.788-12.632-7.253-16.87c-0.562-0.533-0.656-1.393-0.23-2.04c4.177-6.353,4.63-15.371-1.806-23.968
	c-0.1-0.134-0.223-0.257-0.357-0.357c-8.203-6.136-16.787-6.004-23.072-2.351c-1.113,0.647-2.472-0.251-2.405-1.537
	c0.245-4.64-1.191-9.727-4.952-14.681c-0.1-0.131-0.222-0.252-0.354-0.35c-7.903-5.879-16.136-5.944-22.333-2.669
	c-0.806,0.425-1.787,0.13-2.213-0.673c-3.597-6.769-10.717-11.379-18.917-11.379c-8.349,0-15.577,4.781-19.107,11.752
	c-0.431,0.851-1.47,1.151-2.294,0.672c-6.266-3.644-14.812-3.794-22.998,2.292c-0.133,0.098-0.255,0.22-0.355,0.352
	c-2.479,3.266-3.943,6.588-4.587,9.803c9.289-10.854,22.33-9.879,30.678-9.879c8.2,0,15.32,4.611,18.917,11.38
	c0.428,0.803,1.409,1.099,2.213,0.673c6.197-3.276,14.43-3.21,22.333,2.669c0.132,0.098,0.254,0.219,0.354,0.35
	c3.76,4.954,5.196,10.041,4.951,14.68c-0.068,1.286,1.292,2.185,2.405,1.538c6.285-3.654,14.869-3.785,23.071,2.351
	c0.134,0.1,0.257,0.223,0.357,0.356c6.437,8.598,5.984,17.615,1.807,23.968c-0.426,0.647-0.332,1.507,0.23,2.04
	c4.466,4.238,7.253,10.227,7.253,16.87c0,5.793-2.12,11.088-5.625,15.159c-0.662,0.769-0.48,1.915,0.373,2.461
	c5.245,3.352,8.724,9.222,8.724,15.907c0,1.326-0.142,2.619-0.402,3.867c10.511,0.105,19.065-8.373,19.065-18.858
	C263.482,343.341,260.004,337.471,254.759,334.119z"/>
</svg>
