<?xml version="1.0" encoding="utf-8"?>
<!-- Generator: Adobe Illustrator 16.0.0, SVG Export Plug-In . SVG Version: 6.00 Build 0)  -->
<!DOCTYPE svg PUBLIC "-//W3C//DTD SVG 1.1//EN" "http://www.w3.org/Graphics/SVG/1.1/DTD/svg11.dtd">
<svg version="1.1" id="Layer_1" xmlns="http://www.w3.org/2000/svg" xmlns:xlink="http://www.w3.org/1999/xlink" x="0px" y="0px"
	 width="760px" height="960px" viewBox="0 0 760 960" enable-background="new 0 0 760 960" xml:space="preserve">
<circle fill="#47EDC7" cx="414.803" cy="499.076" r="268.692"/>
<rect x="351.508" y="675.157" fill="#5C26A3" width="94.65" height="49.579"/>
<rect x="351.508" y="675.157" fill="#3E1277" width="23.859" height="49.579"/>
<path fill="#4D0E8F" d="M509.202,723.537H281.568c-3.375,0-6.134,2.761-6.134,6.136v30.749c0,3.374,2.762,6.134,6.134,6.134h227.634
	V723.537L509.202,723.537z"/>
<path fill="#3E1277" d="M299.293,760.422V729.67c0-3.373,2.761-6.133,6.136-6.133h-23.861c-3.375,0-6.134,2.76-6.134,6.133v30.752
	c0,3.374,2.762,6.133,6.134,6.133h23.859C302.054,766.555,299.293,763.796,299.293,760.422z"/>
<path fill="#4D0E8F" d="M663.363,314.919H134.31c-3.375,0-6.137,2.762-6.137,6.137v349.17c0,3.375,2.762,6.135,6.137,6.135h374.893
	V492.657c0-4.641,3.772-8.419,8.416-8.419h151.877V321.056C669.495,317.681,666.736,314.919,663.363,314.919z"/>
<path fill="#FFFFFF" d="M155.107,615.009c0,2.027,1.655,3.681,3.679,3.681h350.417V492.657c0-4.641,3.772-8.419,8.416-8.419h124.947
	V375.085H155.107V615.009z"/>
<path fill="#D9EAFC" d="M178.969,615.009V375.085h-23.862v239.924c0,2.027,1.655,3.681,3.679,3.681h23.862
	C180.623,618.689,178.969,617.032,178.969,615.009z"/>
<circle fill="#5C26A3" cx="398.838" cy="647.414" r="16.563"/>
<path fill="#C3DDF4" d="M509.202,512.352h-64.244c-1.985,0-3.606,1.625-3.606,3.609v71.716c0,1.983,1.621,3.608,3.606,3.608h64.244
	V512.352z"/>
<path fill="#AEC1ED" d="M465.21,587.677v-71.716c0-1.984,1.624-3.609,3.608-3.609h-23.86c-1.985,0-3.606,1.625-3.606,3.609v71.716
	c0,1.983,1.621,3.608,3.606,3.608h23.86C466.834,591.285,465.21,589.66,465.21,587.677z"/>
<path fill="#C3DDF4" d="M517.618,484.238h56.06v-78.62c0-3.31-2.703-6.015-6.012-6.015H230.007c-3.308,0-6.015,2.705-6.015,6.015
	v79.996c0,3.308,2.707,6.013,6.015,6.013h279.267C509.785,487.473,513.33,484.238,517.618,484.238z"/>
<path fill="#AEC1ED" d="M247.854,485.612v-79.997c0-3.307,2.705-6.012,6.012-6.012h-23.859c-3.308,0-6.015,2.705-6.015,6.012v79.997
	c0,3.309,2.707,6.015,6.015,6.015h23.859C250.559,491.627,247.854,488.921,247.854,485.612z"/>
<path fill="#FFAF10" d="M638.885,346.209H158.786c-2.024,0-3.679,1.655-3.679,3.682v26.398h487.458v-26.398
	C642.565,347.865,640.909,346.209,638.885,346.209z"/>
<path fill="#FF9518" d="M182.647,346.209h-23.862c-2.024,0-3.679,1.655-3.679,3.682v26.398h23.859v-26.398
	C178.969,347.865,180.623,346.209,182.647,346.209z"/>
<g>
	<path fill="#EF288F" d="M334.411,531.394H233.194c-4.981,0-9.019-4.039-9.019-9.021c0-4.98,4.038-9.019,9.019-9.019h101.217
		c4.982,0,9.019,4.038,9.019,9.019C343.43,527.354,339.393,531.394,334.411,531.394z"/>
	<path fill="#EF288F" d="M334.411,560.839H233.194c-4.981,0-9.019-4.036-9.019-9.019c0-4.981,4.038-9.019,9.019-9.019h101.217
		c4.982,0,9.019,4.037,9.019,9.019C343.43,556.8,339.393,560.839,334.411,560.839z"/>
	<path fill="#EF288F" d="M334.411,590.286H233.194c-4.981,0-9.019-4.037-9.019-9.019c0-4.984,4.038-9.02,9.019-9.02h101.217
		c4.982,0,9.019,4.035,9.019,9.02C343.43,586.249,339.393,590.286,334.411,590.286z"/>
	<path fill="#EF288F" d="M413.847,531.394h-52.102c-4.979,0-9.019-4.039-9.019-9.021c0-4.98,4.04-9.019,9.019-9.019h52.102
		c4.979,0,9.019,4.038,9.019,9.019C422.865,527.354,418.826,531.394,413.847,531.394z"/>
	<path fill="#EF288F" d="M413.847,560.839h-52.102c-4.979,0-9.019-4.036-9.019-9.019c0-4.981,4.04-9.019,9.019-9.019h52.102
		c4.979,0,9.019,4.037,9.019,9.019C422.865,556.8,418.826,560.839,413.847,560.839z"/>
	<path fill="#EF288F" d="M413.847,590.286h-52.102c-4.979,0-9.019-4.037-9.019-9.019c0-4.984,4.04-9.02,9.019-9.02h52.102
		c4.979,0,9.019,4.035,9.019,9.02C422.865,586.249,418.826,590.286,413.847,590.286z"/>
</g>
<path fill="#5C26A3" d="M734.247,483.037c5.291,0,9.621,4.33,9.621,9.62v290.736c0,5.288-4.33,9.621-9.621,9.621H517.618
	c-5.29,0-9.62-4.333-9.62-9.621V492.657c0-5.29,4.33-9.62,9.62-9.62H734.247L734.247,483.037z"/>
<path fill="#FFFFFF" d="M534.108,755.236c-3.307,0-6.014-2.704-6.014-6.012V507.586c0-3.311,2.707-6.015,6.014-6.015H717.76
	c3.308,0,6.014,2.704,6.014,6.015v241.639c0,3.308-2.706,6.012-6.014,6.012H534.108z"/>
<path fill="#D9EAFC" d="M551.955,749.225V507.586c0-3.311,2.706-6.015,6.012-6.015h-23.858c-3.307,0-6.014,2.704-6.014,6.015
	v241.639c0,3.308,2.707,6.012,6.014,6.012h23.858C554.661,755.236,551.955,752.532,551.955,749.225z"/>
<path fill="#4D0E8F" d="M614.677,779.29c-3.307,0-6.014-2.708-6.014-6.016v-2.337c0-3.309,2.707-6.014,6.014-6.014h22.515
	c3.307,0,6.014,2.705,6.014,6.014v2.337c0,3.308-2.707,6.016-6.014,6.016H614.677z"/>
<path fill="#FFAF10" d="M723.773,524.77v-17.184c0-3.311-2.706-6.015-6.014-6.015H534.108c-3.307,0-6.014,2.704-6.014,6.015v17.184
	H723.773L723.773,524.77z"/>
<path fill="#FF9518" d="M557.967,501.571h-23.858c-3.307,0-6.014,2.704-6.014,6.015v17.184h23.86v-17.184
	C551.955,504.275,554.661,501.571,557.967,501.571z"/>
<g>
	<path fill="#EF288F" d="M666.923,634.755h-81.977c-4.979,0-9.02-4.037-9.02-9.02c0-4.981,4.04-9.02,9.02-9.02h81.977
		c4.979,0,9.019,4.038,9.019,9.02C675.941,630.718,671.901,634.755,666.923,634.755z"/>
	<path fill="#EF288F" d="M666.923,662.566h-81.977c-4.979,0-9.02-4.038-9.02-9.02c0-4.982,4.04-9.02,9.02-9.02h81.977
		c4.979,0,9.019,4.037,9.019,9.02C675.941,658.528,671.901,662.566,666.923,662.566z"/>
	<path fill="#EF288F" d="M666.923,690.374h-81.977c-4.979,0-9.02-4.038-9.02-9.019c0-4.982,4.04-9.019,9.02-9.019h81.977
		c4.979,0,9.019,4.036,9.019,9.019C675.941,686.336,671.901,690.374,666.923,690.374z"/>
</g>
<path fill="#C3DDF4" d="M705.094,595.46c0,3.309-2.705,6.013-6.013,6.013H552.788c-3.309,0-6.014-2.704-6.014-6.013v-49.596
	c0-3.309,2.705-6.013,6.014-6.013h146.293c3.308,0,6.013,2.704,6.013,6.013V595.46z"/>
<path fill="#AEC1ED" d="M570.635,595.46v-49.596c0-3.309,2.706-6.013,6.012-6.013h-23.858c-3.309,0-6.014,2.704-6.014,6.013v49.596
	c0,3.309,2.705,6.013,6.014,6.013h23.858C573.341,601.473,570.635,598.769,570.635,595.46z"/>
<path fill="#C3DDF4" d="M683.449,736.348c0,3.308-2.706,6.012-6.013,6.012H574.43c-3.308,0-6.011-2.704-6.011-6.012v-20.335
	c0-3.307,2.703-6.013,6.011-6.013h103.007c3.307,0,6.013,2.706,6.013,6.013V736.348L683.449,736.348z"/>
<path fill="#AEC1ED" d="M592.279,736.348v-20.335c0-3.307,2.706-6.013,6.014-6.013H574.43c-3.308,0-6.011,2.706-6.011,6.013v20.335
	c0,3.308,2.703,6.012,6.011,6.012h23.863C594.985,742.359,592.279,739.655,592.279,736.348z"/>
<g>
	<path fill="#AEC1ED" d="M347.617,237.041c-97.9,4.022-164.939-44.261-164.939-44.261s-67.041,48.283-164.943,44.261
		c0,0-29.535,270.902,164.943,329.907C376.699,507.943,347.617,237.041,347.617,237.041z"/>
	<path fill="#ECF0F1" d="M347.617,246.875c-97.9,4.022-164.939-44.256-164.939-44.256s-67.041,48.279-164.943,44.256
		c0,0-29.535,270.903,164.943,329.913C376.699,517.778,347.617,246.875,347.617,246.875z"/>
	<path fill="#D3D6D6" d="M177.993,547.345C114.559,523.34,72.656,468.994,53.452,385.819c-8.944-38.725-10.87-75.866-10.911-100.2
		l-0.02-12.172l12.128-0.999c53.605-4.414,95.852-21.74,121.854-35.5l6.17-3.267l6.168,3.267
		c25.991,13.753,68.222,31.073,121.809,35.496l12.144,1.003l-0.04,12.187c-0.077,24.324-2.051,61.442-11.021,100.162
		c-19.267,83.178-61.118,137.533-124.394,161.544l-4.672,1.773L177.993,547.345z"/>
	<path fill="#C3DDF4" d="M177.993,547.345C114.559,523.34,72.656,468.994,53.452,385.819c-8.944-38.725-10.87-75.866-10.911-100.2
		l-0.02-12.172l12.128-0.999c53.605-4.414,95.852-21.74,121.854-35.5l6.17-3.267l6.168,3.267
		c25.991,13.753,68.222,31.073,121.809,35.496l12.144,1.003l-0.04,12.187c-0.077,24.324-2.051,61.442-11.021,100.162
		c-19.267,83.178-61.118,137.533-124.394,161.544l-4.672,1.773L177.993,547.345z"/>
	<path fill="#FF9518" d="M182.663,535.006c-59.076-22.354-98.192-73.48-116.359-152.154c-8.525-36.919-10.528-72.424-10.571-97.255
		c56.97-4.691,101.612-23.586,126.942-36.99c25.324,13.4,69.948,32.286,126.888,36.986c-0.077,24.824-2.125,60.316-10.677,97.227
		C280.657,461.513,241.584,512.646,182.663,535.006z"/>
	<path fill="#3E1277" d="M89.902,400.089l-13.909,16.569c20.777,59.67,56.532,99.373,106.669,118.348l0.029-18.691L89.902,400.089z"
		/>
	<path fill="#FFB83B" d="M139.158,347.328l42.978-62.401l0.539-36.321c-25.33,13.404-69.974,32.299-126.942,36.99l23.744,29.242
		L139.158,347.328z"/>
	<path fill="#5C26A3" d="M309.472,293.295c0.051-2.655,0.285-5.245,0.288-7.703c-56.931-4.7-102.685-23.578-126.675-36.976v63.092
		l101.866,3.123L309.472,293.295z"/>
	<path fill="#3E1277" d="M298.886,382.819c8.551-36.911,10.6-72.403,10.677-97.227l-24.808,29.239l-30.585,60.112l34.887,42.037
		C292.815,406.24,296.098,394.856,298.886,382.819z"/>
	<path fill="#FF9518" d="M254.169,374.943l-71.478,141.371c0,0-0.131,18.653-0.029,18.691
		c49.91-18.937,85.572-58.531,106.395-118.025L254.169,374.943z"/>
	<path fill="#FFAF10" d="M183.084,285.214c0-0.092-0.571-0.192-0.751-0.287c-20.485,10.833-56.688,26.114-102.757,29.911
		c0.032,20.078,1.605,49.638,8.502,79.497c0.511,2.229,1.002,3.448,1.56,7.445h93.447V285.214L183.084,285.214z"/>
	<path fill="#4D0E8F" d="M274.495,401.78c0.56-3.997,1.105-5.233,1.623-7.475c6.913-29.847,8.769-58.976,8.831-79.05
		c-45.644-3.767-80.872-19.224-101.866-30.042V401.78H274.495z"/>
	<path fill="#4D0E8F" d="M89.637,401.78c15.32,58.984,46.584,98.163,92.686,115.602c0.188-0.067,0.761-0.995,0.761-1.067V401.78
		H89.637z"/>
	<path fill="#FFAF10" d="M274.495,401.78h-91.411v114.534C229.073,498.761,259.195,460.765,274.495,401.78z"/>
</g>
</svg>
