<?xml version="1.0" encoding="utf-8"?>
<!-- Generator: Adobe Illustrator 16.0.0, SVG Export Plug-In . SVG Version: 6.00 Build 0)  -->
<!DOCTYPE svg PUBLIC "-//W3C//DTD SVG 1.1//EN" "http://www.w3.org/Graphics/SVG/1.1/DTD/svg11.dtd">
<svg version="1.1" id="Layer_1" xmlns="http://www.w3.org/2000/svg" xmlns:xlink="http://www.w3.org/1999/xlink" x="0px" y="0px"
	 width="760px" height="960px" viewBox="0 0 760 960" enable-background="new 0 0 760 960" xml:space="preserve">
<circle fill="#47EDC7" cx="407.803" cy="499.076" r="268.692"/>
<g>
	<path fill="#ECF0F1" d="M410.547,189.928l-96.057,0.8l-15.382,15.858l-24.013,24.756l-4.531,4.674l0.024,3.053l0.697,80.691
		c15.262,28.184,45.2,47.218,79.482,46.934c34.684-0.289,64.591-20.268,79.203-49.237l-0.68-81.833l-0.253-27.181
		C428.956,198.354,420.635,189.843,410.547,189.928z"/>
	<polygon fill="#ECF0F0" points="377.487,248.077 324.326,248.518 377.932,301.171 	"/>
	<polygon fill="#CBCFCF" points="324.326,248.518 320.215,248.552 320.676,304.037 377.948,303.56 377.932,301.171 	"/>
	<polygon fill="#AEC1ED" points="314.794,227.203 359.012,190.358 314.49,190.728 295.074,235.512 	"/>
	<path fill="#FBFFFF" d="M306.617,235.542c4.536-0.039,8.063-3.602,8.027-8.136l-0.302-36.277l-44.002,44.713L306.617,235.542z"/>
	<path fill="#4D0E8F" d="M388.21,245.826c-0.035-3.954-3.491-7.355-7.449-7.323c-20.702,0.174-41.407,0.344-62.111,0.517
		c-3.956,0.032-7.437,3.492-7.401,7.448c0.171,20.704,0.345,41.407,0.517,62.112c0.033,3.956,3.57,7.434,7.524,7.401
		c20.705-0.174,41.458-0.346,62.338-0.519c2.671-0.023,4.526-1.371,5.587-3.241c0.941-1.151,1.525-2.673,1.511-4.576
		C388.554,287.363,388.382,266.531,388.21,245.826z M373.751,300.612c-15.768,0.133-31.468,0.263-47.134,0.393
		c-0.132-15.71-0.262-31.419-0.391-47.131c15.71-0.131,31.42-0.26,47.129-0.392C373.486,269.265,373.619,285.074,373.751,300.612z"
		/>
	<path fill="#3E1277" d="M373.632,286.593c0.038,4.69,0.077,9.37,0.119,14.019c-15.768,0.133-31.468,0.263-47.134,0.393
		c-0.132-15.71-0.262-31.419-0.391-47.131c4.672-0.039,9.346-0.078,14.019-0.117l-15.04-14.79c-2.184,0.018-4.37,0.035-6.556,0.054
		c-3.954,0.032-7.435,3.492-7.401,7.448c0.171,20.704,0.345,41.407,0.517,62.112c0.033,3.956,3.57,7.434,7.524,7.401
		c20.705-0.174,41.458-0.346,62.338-0.519c2.671-0.023,4.526-1.371,5.587-3.241c0.941-1.151,1.525-2.673,1.511-4.576
		c-0.02-2.08-0.034-4.17-0.052-6.265L373.632,286.593z"/>
	<path fill="#EF288F" d="M413.064,234.527c0.022-0.019,0.048-0.041,0.071-0.062c2.967-2.618,2.581-7.634-0.087-10.262
		c-2.968-2.918-7.299-2.53-10.263,0.085c-14.475,12.771-28.948,25.477-43.426,38.208l10.404,10.233
		C384.197,259.996,398.63,247.262,413.064,234.527z"/>
	<path fill="#C11B76" d="M359.36,262.497c-3.825,3.367-7.656,6.735-11.483,10.107c-5.104-5.8-10.214-12-15.321-17.949
		c-2.579-3.003-7.663-2.487-10.261,0.156c-2.946,2.994-2.489,7.332,0.085,10.329c6.584,7.668,13.167,15.336,19.75,23.002
		c2.706,3.153,7.495,2.356,10.262-0.085c5.791-5.107,11.581-10.218,17.373-15.327L359.36,262.497z M342.112,277.684
		c-0.024,0.021-0.047-0.075-0.071-0.075c0.055,0,0.105,0,0.157,0C342.17,277.631,342.143,277.658,342.112,277.684z"/>
</g>
<rect x="344.508" y="675.157" fill="#5C26A3" width="94.65" height="49.579"/>
<rect x="344.508" y="675.157" fill="#3E1277" width="23.859" height="49.579"/>
<path fill="#4D0E8F" d="M502.202,723.537H274.568c-3.375,0-6.134,2.761-6.134,6.136v30.749c0,3.374,2.762,6.134,6.134,6.134h227.634
	V723.537L502.202,723.537z"/>
<path fill="#3E1277" d="M292.293,760.422V729.67c0-3.373,2.761-6.133,6.136-6.133h-23.861c-3.375,0-6.134,2.76-6.134,6.133v30.752
	c0,3.374,2.762,6.133,6.134,6.133h23.859C295.054,766.555,292.293,763.796,292.293,760.422z"/>
<path fill="#4D0E8F" d="M656.363,314.919H127.31c-3.375,0-6.137,2.762-6.137,6.137v349.17c0,3.375,2.762,6.135,6.137,6.135h374.893
	V492.657c0-4.641,3.772-8.419,8.416-8.419h151.877V321.056C662.495,317.681,659.736,314.919,656.363,314.919z"/>
<path fill="#FFFFFF" d="M148.107,615.009c0,2.027,1.655,3.681,3.679,3.681h350.417V492.657c0-4.641,3.772-8.419,8.416-8.419h124.947
	V375.085H148.107V615.009z"/>
<path fill="#D9EAFC" d="M171.969,615.009V375.085h-23.862v239.924c0,2.027,1.655,3.681,3.679,3.681h23.862
	C173.623,618.689,171.969,617.032,171.969,615.009z"/>
<circle fill="#5C26A3" cx="391.838" cy="647.414" r="16.563"/>
<path fill="#C3DDF4" d="M502.202,512.352h-64.244c-1.985,0-3.606,1.625-3.606,3.609v71.716c0,1.983,1.621,3.608,3.606,3.608h64.244
	V512.352z"/>
<path fill="#AEC1ED" d="M458.21,587.677v-71.716c0-1.984,1.624-3.609,3.608-3.609h-23.86c-1.985,0-3.606,1.625-3.606,3.609v71.716
	c0,1.983,1.621,3.608,3.606,3.608h23.86C459.834,591.285,458.21,589.66,458.21,587.677z"/>
<path fill="#C3DDF4" d="M510.618,484.238h56.06v-78.62c0-3.31-2.703-6.015-6.012-6.015H223.007c-3.308,0-6.015,2.705-6.015,6.015
	v79.996c0,3.308,2.707,6.013,6.015,6.013h279.267C502.785,487.473,506.33,484.238,510.618,484.238z"/>
<path fill="#AEC1ED" d="M240.854,485.612v-79.997c0-3.307,2.705-6.012,6.012-6.012h-23.859c-3.308,0-6.015,2.705-6.015,6.012v79.997
	c0,3.309,2.707,6.015,6.015,6.015h23.859C243.559,491.627,240.854,488.921,240.854,485.612z"/>
<path fill="#FFAF10" d="M631.885,346.209H151.786c-2.024,0-3.679,1.655-3.679,3.682v26.398h487.458v-26.398
	C635.565,347.865,633.909,346.209,631.885,346.209z"/>
<path fill="#FF9518" d="M175.647,346.209h-23.862c-2.024,0-3.679,1.655-3.679,3.682v26.398h23.859v-26.398
	C171.969,347.865,173.623,346.209,175.647,346.209z"/>
<g>
	<path fill="#EF288F" d="M327.411,531.394H226.194c-4.981,0-9.019-4.039-9.019-9.021c0-4.98,4.038-9.019,9.019-9.019h101.217
		c4.982,0,9.019,4.038,9.019,9.019C336.43,527.354,332.393,531.394,327.411,531.394z"/>
	<path fill="#EF288F" d="M327.411,560.839H226.194c-4.981,0-9.019-4.036-9.019-9.019c0-4.981,4.038-9.019,9.019-9.019h101.217
		c4.982,0,9.019,4.037,9.019,9.019C336.43,556.8,332.393,560.839,327.411,560.839z"/>
	<path fill="#EF288F" d="M327.411,590.286H226.194c-4.981,0-9.019-4.037-9.019-9.019c0-4.984,4.038-9.02,9.019-9.02h101.217
		c4.982,0,9.019,4.035,9.019,9.02C336.43,586.249,332.393,590.286,327.411,590.286z"/>
	<path fill="#EF288F" d="M406.847,531.394h-52.102c-4.979,0-9.019-4.039-9.019-9.021c0-4.98,4.04-9.019,9.019-9.019h52.102
		c4.979,0,9.019,4.038,9.019,9.019C415.865,527.354,411.826,531.394,406.847,531.394z"/>
	<path fill="#EF288F" d="M406.847,560.839h-52.102c-4.979,0-9.019-4.036-9.019-9.019c0-4.981,4.04-9.019,9.019-9.019h52.102
		c4.979,0,9.019,4.037,9.019,9.019C415.865,556.8,411.826,560.839,406.847,560.839z"/>
	<path fill="#EF288F" d="M406.847,590.286h-52.102c-4.979,0-9.019-4.037-9.019-9.019c0-4.984,4.04-9.02,9.019-9.02h52.102
		c4.979,0,9.019,4.035,9.019,9.02C415.865,586.249,411.826,590.286,406.847,590.286z"/>
</g>
<path fill="#5C26A3" d="M727.247,483.037c5.291,0,9.621,4.33,9.621,9.62v290.736c0,5.288-4.33,9.621-9.621,9.621H510.618
	c-5.29,0-9.62-4.333-9.62-9.621V492.657c0-5.29,4.33-9.62,9.62-9.62H727.247L727.247,483.037z"/>
<path fill="#FFFFFF" d="M527.108,755.236c-3.307,0-6.014-2.704-6.014-6.012V507.586c0-3.311,2.707-6.015,6.014-6.015H710.76
	c3.308,0,6.014,2.704,6.014,6.015v241.639c0,3.308-2.706,6.012-6.014,6.012H527.108z"/>
<path fill="#D9EAFC" d="M544.955,749.225V507.586c0-3.311,2.706-6.015,6.012-6.015h-23.858c-3.307,0-6.014,2.704-6.014,6.015
	v241.639c0,3.308,2.707,6.012,6.014,6.012h23.858C547.661,755.236,544.955,752.532,544.955,749.225z"/>
<path fill="#4D0E8F" d="M607.677,779.29c-3.307,0-6.014-2.708-6.014-6.016v-2.337c0-3.309,2.707-6.014,6.014-6.014h22.515
	c3.307,0,6.014,2.705,6.014,6.014v2.337c0,3.308-2.707,6.016-6.014,6.016H607.677z"/>
<path fill="#FFAF10" d="M716.773,524.77v-17.184c0-3.311-2.706-6.015-6.014-6.015H527.108c-3.307,0-6.014,2.704-6.014,6.015v17.184
	H716.773L716.773,524.77z"/>
<path fill="#FF9518" d="M550.967,501.571h-23.858c-3.307,0-6.014,2.704-6.014,6.015v17.184h23.86v-17.184
	C544.955,504.275,547.661,501.571,550.967,501.571z"/>
<g>
	<path fill="#EF288F" d="M659.923,634.755h-81.977c-4.979,0-9.02-4.037-9.02-9.02c0-4.981,4.04-9.02,9.02-9.02h81.977
		c4.979,0,9.019,4.038,9.019,9.02C668.941,630.718,664.901,634.755,659.923,634.755z"/>
	<path fill="#EF288F" d="M659.923,662.566h-81.977c-4.979,0-9.02-4.038-9.02-9.02c0-4.982,4.04-9.02,9.02-9.02h81.977
		c4.979,0,9.019,4.037,9.019,9.02C668.941,658.528,664.901,662.566,659.923,662.566z"/>
	<path fill="#EF288F" d="M659.923,690.374h-81.977c-4.979,0-9.02-4.038-9.02-9.019c0-4.982,4.04-9.019,9.02-9.019h81.977
		c4.979,0,9.019,4.036,9.019,9.019C668.941,686.336,664.901,690.374,659.923,690.374z"/>
</g>
<path fill="#C3DDF4" d="M698.094,595.46c0,3.309-2.705,6.013-6.013,6.013H545.788c-3.309,0-6.014-2.704-6.014-6.013v-49.596
	c0-3.309,2.705-6.013,6.014-6.013h146.293c3.308,0,6.013,2.704,6.013,6.013V595.46z"/>
<path fill="#AEC1ED" d="M563.635,595.46v-49.596c0-3.309,2.706-6.013,6.012-6.013h-23.858c-3.309,0-6.014,2.704-6.014,6.013v49.596
	c0,3.309,2.705,6.013,6.014,6.013h23.858C566.341,601.473,563.635,598.769,563.635,595.46z"/>
<path fill="#C3DDF4" d="M676.449,736.348c0,3.308-2.706,6.012-6.013,6.012H567.43c-3.308,0-6.011-2.704-6.011-6.012v-20.335
	c0-3.307,2.703-6.013,6.011-6.013h103.007c3.307,0,6.013,2.706,6.013,6.013V736.348L676.449,736.348z"/>
<path fill="#AEC1ED" d="M585.279,736.348v-20.335c0-3.307,2.706-6.013,6.014-6.013H567.43c-3.308,0-6.011,2.706-6.011,6.013v20.335
	c0,3.308,2.703,6.012,6.011,6.012h23.863C587.985,742.359,585.279,739.655,585.279,736.348z"/>
<g id="Strategy">
	<g id="graph_paper">
		<path fill="#ECF0F1" d="M219.911,223.998v-50.873c-2.421-1.088-5.079-1.782-7.262-1.782H34.708c-3.995,0-7.263,3.267-7.263,7.263
			v306.859c0,3.993,3.268,7.262,7.263,7.262h230.596c3.995,0,7.263-3.269,7.263-7.262V231.261c0-2.182-0.693-4.842-1.784-7.263
			H219.911z"/>
		<path fill="#C3DDF4" d="M270.784,223.998c-0.901-2.006-2.071-3.852-3.352-5.134l-21.194-21.19l-21.199-21.202
			c-1.279-1.275-3.124-2.445-5.128-3.346v50.873H270.784z"/>
		<rect x="67.39" y="253.958" fill="#EF288F" width="34.498" height="78.079"/>
		<rect x="110.97" y="270.301" fill="#FFAF10" width="34.496" height="61.736"/>
		<rect x="154.542" y="285.734" fill="#4D0E8F" width="34.502" height="46.303"/>
		<rect x="198.121" y="228.54" fill="#47EDC7" width="34.5" height="103.497"/>
		<rect x="67.39" y="343.837" fill="#C3DDF4" width="165.231" height="10.894"/>
		<g>
			<path fill="#FFAF10" d="M144.898,388.078c-8.223-7.191-18.975-11.558-30.752-11.558c-0.154,0-0.305,0.009-0.455,0.012v48.92
				L144.898,388.078z"/>
			<path fill="#47EDC7" d="M113.691,376.532c-25.612,0.246-46.301,21.074-46.301,46.745c0,14.793,6.879,27.974,17.605,36.543
				l28.696-34.367V376.532z"/>
			<path fill="#EF288F" d="M144.898,388.078l-31.207,37.375v44.567c0.15,0.001,0.3,0.011,0.455,0.011
				c25.825,0,46.756-20.934,46.756-46.754C160.902,409.231,154.701,396.643,144.898,388.078z"/>
			<path fill="#4D0E8F" d="M84.995,459.819c7.885,6.297,17.846,10.095,28.696,10.2v-44.57L84.995,459.819z"/>
		</g>
		<g>
			<circle fill="#FFAF10" cx="187.228" cy="396.041" r="7.263"/>
			<circle fill="#47EDC7" cx="187.228" cy="414.195" r="7.263"/>
			<circle fill="#4D0E8F" cx="187.228" cy="432.353" r="7.263"/>
			<circle fill="#EF288F" cx="187.228" cy="450.512" r="7.263"/>
		</g>
		<g>
			<path fill="#C3DDF4" d="M245.333,397.402h-40.855c-1.256,0-2.27-1.017-2.27-2.271c0-1.253,1.013-2.271,2.27-2.271h40.855
				c1.254,0,2.268,1.017,2.268,2.271C247.601,396.385,246.587,397.402,245.333,397.402z"/>
		</g>
		<g>
			<path fill="#C3DDF4" d="M238.068,415.56h-33.591c-1.256,0-2.27-1.017-2.27-2.274c0-1.251,1.013-2.267,2.27-2.267h33.591
				c1.254,0,2.272,1.016,2.272,2.267C240.341,414.542,239.322,415.56,238.068,415.56z"/>
		</g>
		<g>
			<path fill="#C3DDF4" d="M238.068,433.714h-33.591c-1.256,0-2.27-1.012-2.27-2.268c0-1.254,1.013-2.27,2.27-2.27h33.591
				c1.254,0,2.272,1.016,2.272,2.27C240.341,432.703,239.322,433.714,238.068,433.714z"/>
		</g>
		<g>
			<path fill="#C3DDF4" d="M242.607,451.873H202.66c-1.252,0-2.271-1.016-2.271-2.271c0-1.254,1.019-2.268,2.271-2.268h39.947
				c1.254,0,2.272,1.014,2.272,2.268C244.88,450.857,243.861,451.873,242.607,451.873z"/>
		</g>
		<rect x="41.971" y="183.146" fill="#C3DDF4" width="62.641" height="15.431"/>
		<g>
			<path fill="#C3DDF4" d="M187.228,184.96h-73.537c-1.251,0-2.268-1.016-2.268-2.267c0-1.254,1.017-2.272,2.268-2.272h73.537
				c1.254,0,2.268,1.019,2.268,2.272C189.496,183.944,188.482,184.96,187.228,184.96z"/>
		</g>
		<g>
			<path fill="#C3DDF4" d="M171.795,193.131h-58.104c-1.251,0-2.268-1.015-2.268-2.268c0-1.257,1.017-2.271,2.268-2.271h58.104
				c1.254,0,2.27,1.014,2.27,2.271C174.064,192.117,173.049,193.131,171.795,193.131z"/>
		</g>
		<g>
			<path fill="#C3DDF4" d="M194.493,200.396h-80.801c-1.251,0-2.268-1.017-2.268-2.271s1.017-2.271,2.268-2.271h80.801
				c1.254,0,2.27,1.017,2.27,2.271S195.747,200.396,194.493,200.396z"/>
		</g>
		<rect x="41.971" y="211.29" fill="#3E1277" width="156.15" height="10.895"/>
	</g>
</g>
</svg>
