<?xml version="1.0" encoding="utf-8"?>
<!-- Generator: Adobe Illustrator 16.0.0, SVG Export Plug-In . SVG Version: 6.00 Build 0)  -->
<!DOCTYPE svg PUBLIC "-//W3C//DTD SVG 1.1//EN" "http://www.w3.org/Graphics/SVG/1.1/DTD/svg11.dtd">
<svg version="1.1" id="Layer_1" xmlns="http://www.w3.org/2000/svg" xmlns:xlink="http://www.w3.org/1999/xlink" x="0px" y="0px"
	 width="660px" height="960px" viewBox="0 0 660 960" enable-background="new 0 0 660 960" xml:space="preserve">
<g>
	<path fill-rule="evenodd" clip-rule="evenodd" fill="#410E7C" d="M307.283,766.31c0.036-6.626,0.071-13.253,0.108-19.88
		c79.036-0.021,158.071-0.041,237.108-0.062c0.262,6.647,0.522,13.294,0.785,19.941C465.95,766.31,386.617,766.31,307.283,766.31z"
		/>
	<path fill-rule="evenodd" clip-rule="evenodd" fill="#4E0E8F" d="M272.337,407.803c8.11-11.9,20.46-16.928,33.574-20.717
		c5.632-1.422,11.322-2.648,16.887-4.297c14.486-4.29,29.286-7.496,43.537-12.594c0.964,0.007,1.928,0.015,2.891,0.022
		c-6.067,7.653-8.758,16.907-12.195,25.798c-4.4,11.374-8.695,22.788-13.282,34.832c2.504-1.021,4.105-1.675,5.707-2.329
		c-0.429,2.29-0.876,4.578-1.274,6.873c-0.189,1.089-1.058,2.352,0.147,3.236c1.264,0.926,2.53,0.236,3.804-0.395
		c9.938-4.927,19.865-9.877,29.871-14.667c7.903-3.783,15.406-8.41,23.721-11.334c8.263,16.619,16.524,33.236,25.113,50.512
		c8.686-17.453,16.924-34.008,25.161-50.561c0.957,0.149,2.03,0.067,2.855,0.481c16.306,8.163,32.583,16.379,48.86,24.597
		c1.534,0.775,3.135,2.443,4.78,1.326c1.995-1.357,0.082-3.103-0.297-4.692c-0.402-1.685-0.627-3.411-0.93-5.118
		c2.081-1.004,3.688,1.657,6.458,1.063c-7.517-18.682-12.819-37.606-21.254-55.363c20.25,5.399,40.554,10.606,60.727,16.279
		c9.683,2.724,16.856,9.333,22.938,17.147c2.307,5.096,4.777,10.124,6.884,15.301c4.219,10.37,8.24,20.82,12.343,31.238
		c0.257,0.485,0.515,0.972,0.772,1.458l-0.072-0.004c7.291,20.873,15.342,41.454,23.839,61.863
		c1.435,4.026,2.869,8.055,4.304,12.083c4.627,12.991,11.104,25.408,12.265,39.478c-1.353,23.524-13.97,35.57-37.717,35.967
		c-15.374,0.256-30.749,0.455-46.124,0.721c-2.109,0.036-4.307-0.361-6.276,0.836c-22.521,0.616-45.042,0.571-67.591,2.141
		c-16.261,1.131-32.665,0.104-49.003,0.314c-3.776,0.048-5.926-2.134-6.352-5.983c-0.508-9.671-1.003-19.344-1.525-29.014
		c-0.307-5.665,1.183-10.85-7.145-14.063c-8.336-3.216-15.029-10.69-22.442-16.298c0.035-22.428,0.077-44.854,0.103-67.28
		c0.012-10.578-3.354-13.976-13.881-13.979c-39.589-0.009-79.179,0.005-118.768-0.02c-2.918-0.002-5.836-0.235-8.754-0.361
		c1.378-5.579,2.757-11.157,4.136-16.735c1.521,0.86,1.075,2.368,1.147,3.663c0.119,2.134,1.239,3.318,3.3,3.261
		c1.784-0.049,3.257-1.365,2.955-3.012c-2.026-11.077,2.677-14.975,13.363-13.235c1.512,0.246,2.885-1.25,2.778-3.131
		c-0.101-1.75-1.134-2.914-2.893-3.147c-1.346-0.179-2.727-0.121-4.093-0.128c-9.647-0.055-10.443-0.996-8.746-10.701
		c0.267-1.526,0.871-2.993,1.319-4.487C269.62,412.363,270.979,410.083,272.337,407.803z M291.235,413.833
		c-0.375-2.777-1.885-4.973-5.08-5.102c-3.505-0.143-5.557,2.015-5.531,5.408c0.023,3.136,2.075,5.102,5.255,5.1
		C289.062,419.237,290.807,417.283,291.235,413.833z"/>
	<path fill-rule="evenodd" clip-rule="evenodd" fill="#4E0E8F" d="M549.513,624.424c-1.201,27.551-2.395,55.102-3.611,82.651
		c-0.282,6.396-0.649,12.789-0.979,19.187c-1.233-2.353-3.425-2.159-5.592-2.159c-75.702,0.01-151.402,0.008-227.104,0.014
		c-2.112,0.001-4.447-0.385-5.217,2.478c-1.368-5.132-0.671-10.387-0.873-15.583c-0.514-13.184-0.85-26.373-1.258-39.562
		c22.268-0.033,44.536-0.077,66.804-0.097c19.145-0.016,38.288,0.005,57.432-0.008c9.31-0.007,10.725-1.477,10.727-10.993
		c0-0.781-0.078-1.572,0.013-2.343c0.479-4.078-1.294-5.477-5.366-5.424c-12.695,0.165-25.393,0.018-38.09-0.008
		c0.001-12.754,0.002-25.507,0.003-38.261c9.109-0.246,16.354-4.846,23.359-10.006c0.03,2.926,0.133,5.853,0.065,8.775
		c-0.065,2.851,0.995,4.174,4.054,4.359c19.772,1.194,39.566,1.948,59.333,3.339c20.159,1.419,40.398,1.688,60.599,2.538
		C545.724,623.404,547.612,624.044,549.513,624.424z"/>
	<path fill-rule="evenodd" clip-rule="evenodd" fill="#C6A599" d="M497.7,264.226c7.879,3.339,12.562,10.678,12.345,19.342
		c-0.218,8.702-5.77,17.055-14.369,19.284c-5.642,1.462-7.225,4.154-6.468,9.332c1.924,13.149-2.817,23.163-14.041,30.309
		c-2.063,1.313-3.521,3.578-5.257,5.403c-1.992,0.04-3.04,1.587-4.31,2.744c-16.151,14.717-16.148,14.72-37.949,14.72
		c-3.115,0-6.234-0.117-9.342,0.033c-3.07,0.15-5.461-0.806-7.982-2.696c-6.341-4.752-11.371-11.124-18.489-14.885
		c-2.57-4.058-6.671-6.525-10.253-9.443c-7.095-5.783-10.077-13.088-9.657-22.04c0.092-1.942-0.181-3.916,0.053-5.833
		c0.504-4.14-1.035-6.053-5.22-7.364c-12.472-3.907-18.409-16.826-13.374-28.43c2.046-4.716,5.128-8.698,10.447-10.226
		c0.718,8.745,0.143,17.93,9.116,25.413c0-27.348,0-53.449,0-81.309c12.403,15.344,27.563,18.787,44.604,18.393
		c21.677-0.501,43.377,0.063,65.06-0.253c5.319-0.078,6.527,1.554,6.435,6.61c-0.309,16.797-0.132,33.605-0.09,50.408
		c0.004,1.635-0.479,3.414,0.939,5.423c2.537-2.033,3.791-4.605,5.126-7.128C498.003,276.404,496.861,270.167,497.7,264.226z"/>
	<path fill-rule="evenodd" clip-rule="evenodd" fill="#390A7C" d="M396.4,614.316c-0.001,12.754-0.002,25.507-0.003,38.261
		c-32.593,0.006-65.187,0.029-97.78,0.016c-61.283-0.025-122.565-0.072-183.848-0.108c-0.036-59.592-0.099-119.185-0.077-178.776
		c0.003-7.696,3.481-10.653,12.113-10.668c37.514-0.06,75.028-0.064,112.542-0.116c2.333-0.002,4.666-0.221,6.998-0.339
		c2.896,0.274,5.805,0.966,8.65-0.287c2.918,0.126,5.836,0.359,8.754,0.361c39.589,0.024,79.179,0.011,118.768,0.02
		c10.526,0.003,13.893,3.4,13.881,13.979c-0.025,22.426-0.067,44.853-0.103,67.279c-4.791-3.293-9.58-6.586-14.37-9.879
		c0.022-16.408-0.199-32.823,0.201-49.222c0.14-5.729-1.647-7.096-7.211-7.083c-79.503,0.177-159.008,0.174-238.511,0.003
		c-5.479-0.011-7.303,1.211-7.275,7.011c0.23,48.835,0.224,97.672,0.005,146.505c-0.025,5.644,1.526,7.156,7.154,7.144
		c79.309-0.18,158.618-0.122,237.926-0.122c0.781,0,1.571-0.077,2.343,0.012c4.004,0.463,5.66-1.151,5.497-5.299
		c-0.244-6.241-0.062-12.5-0.061-18.75C386.796,614.275,391.599,614.296,396.4,614.316z"/>
	<path fill-rule="evenodd" clip-rule="evenodd" fill="#313437" d="M497.7,264.226c-0.839,5.942,0.303,12.179-2.676,17.806
		c-1.335,2.523-2.589,5.095-5.126,7.128c-1.418-2.009-0.936-3.789-0.939-5.423c-0.042-16.803-0.219-33.611,0.09-50.408
		c0.093-5.056-1.115-6.688-6.435-6.61c-21.683,0.316-43.383-0.249-65.06,0.253c-17.041,0.394-32.201-3.049-44.604-18.393
		c0,27.859,0,53.961,0,81.309c-8.974-7.483-8.398-16.668-9.116-25.413c0.163-0.365,0.127-0.708-0.106-1.03
		c1.084-25.918,0.633-51.84,0.236-77.762c1.035-3.967-1.764-9.644,1.324-11.667c3.046-1.996,8.299-0.699,12.584-0.711
		c13.677-0.038,27.354-0.037,41.03-0.009c22.763,0.046,37.832,10.788,45.574,32.413c0.103,0.29,0.494,0.476,1.569,1.457
		c0-3.084-0.095-5.471,0.016-7.848c0.673-14.578,11.426-25.233,25.815-26.088c4.415-0.262,5.593,1.028,5.559,5.457
		c-0.21,26.766-0.112,53.534-0.09,80.302C497.347,260.732,497.577,262.478,497.7,264.226z"/>
	<path fill-rule="evenodd" clip-rule="evenodd" fill="#330C60" d="M114.77,652.484c61.282,0.036,122.565,0.083,183.848,0.108
		c32.594,0.014,65.188-0.01,97.78-0.016c12.697,0.025,25.395,0.173,38.09,0.008c4.072-0.053,5.845,1.346,5.366,5.424
		c-0.091,0.771-0.013,1.562-0.013,2.343c-0.002,9.517-1.417,10.986-10.727,10.993c-19.144,0.013-38.287-0.008-57.432,0.008
		c-22.268,0.02-44.536,0.063-66.804,0.097c-25.085-0.041-50.172-0.083-75.255-0.124c-0.331-3.785-1.025-7.377-4.982-9.199
		c-4.333-1.995-7.616,0.357-10.653,3.111c-3.756-6.78-7.789-9.262-12.037-6.126c-4.914,3.627-9.795-3.717-14.038,1.032
		c-0.127,0.143-0.342,0.21-0.456,0.358c-1.741,2.281-3.017,1.938-4.849-0.228c-2.247-2.654-5.537-2.787-8.593-1.487
		c-3.1,1.317-4.733,3.907-4.85,7.344c-0.06,1.742-0.095,3.485-0.141,5.228c-1.119,0.085-2.237,0.17-3.358,0.254
		c-9.434-0.021-18.866-0.041-28.298-0.061c-18.546-0.068-37.092-0.141-55.638-0.202c-9.301-0.031-14.666-8.487-10.736-16.87
		c1.041-2.221,2.974-1.48,4.579-1.489c10.934-0.068,21.869-0.012,32.804-0.058C110.508,652.924,112.639,652.641,114.77,652.484z"/>
	<path fill-rule="evenodd" clip-rule="evenodd" fill="#360E70" d="M307.01,726.594c0.771-2.862,3.105-2.477,5.217-2.478
		c75.702-0.006,151.402-0.004,227.104-0.014c2.167,0,4.358-0.193,5.592,2.159c-0.141,6.7-0.282,13.402-0.424,20.105
		c-79.037,0.021-158.072,0.042-237.108,0.063C307.264,739.819,307.137,733.207,307.01,726.594z"/>
	<path fill-rule="evenodd" clip-rule="evenodd" fill="#CCEFF3" d="M496.472,374.473c8.435,17.757,13.737,36.682,21.254,55.363
		c-2.77,0.594-4.377-2.066-6.458-1.063c-3.314-4.299-8.419-5.926-12.893-8.407c-12.14-6.731-23.82-14.305-36.508-20.038
		c0.865-2.124,1.461-4.413,2.645-6.34c4.813-7.837,6.839-16.182,5.216-25.313c0.162-4.251,0.323-8.502,0.485-12.753
		C482.134,357.623,489.65,365.557,496.472,374.473z"/>
	<path fill-rule="evenodd" clip-rule="evenodd" fill="#CCEFF3" d="M349.455,428.517c-1.602,0.654-3.203,1.308-5.707,2.329
		c4.587-12.044,8.882-23.458,13.282-34.832c3.438-8.891,6.128-18.145,12.195-25.798c5.989-7,13.139-12.178,22.298-14.2
		c0.151,4.241,0.302,8.482,0.454,12.723c-1.04,8.321-0.392,16.279,4.329,23.603c1.561,2.42,2.416,5.295,3.593,7.963
		C383.085,409.708,366.27,419.113,349.455,428.517z"/>
	<path fill-rule="evenodd" clip-rule="evenodd" fill="#390A7C" d="M549.513,625.597c-1.9-0.38-3.789-1.021-5.702-1.102
		c-20.2-0.851-40.439-1.12-60.599-2.538c-19.767-1.392-39.561-2.145-59.333-3.339c-3.059-0.186-5.292-2.682-5.227-5.532
		c0.067-2.923,1.138-5.85,1.108-8.775c2.55-0.333,5.099-0.666,7.647-0.999c0.426,3.85,2.575,4.859,6.352,4.811
		c16.338-0.209,32.742,0.816,49.003-0.314c22.549-1.568,50.895-1.239,67.591-0.968C550.074,612.701,549.793,619.734,549.513,625.597
		z"/>
	<path fill-rule="evenodd" clip-rule="evenodd" fill="#806459" d="M391.978,368.739c-0.152-4.241-0.303-8.482-0.454-12.723
		c0.104-2.735,0.209-5.47,0.313-8.206c7.119,3.761,12.149,10.133,18.49,14.885c2.521,1.89,4.912,2.846,7.982,2.696
		c3.107-0.15,6.227-0.033,9.342-0.033c21.801,0,21.798-0.003,37.949-14.72c1.27-1.157,2.317-2.704,4.31-2.744
		c0.101,2.676,0.202,5.352,0.303,8.027c-0.162,4.251-0.323,8.502-0.485,12.753c-9.901,6.298-19.994,11.916-32.461,9.634
		c-1.313-0.241-2.714-0.097-4.068-0.022c-14.257,0.776-28.34,0.829-40.118-9.212C392.813,368.846,392.35,368.846,391.978,368.739z"
		/>
	<path fill-rule="evenodd" clip-rule="evenodd" fill="#B38E7F" d="M169.025,671.358c0.045-1.742,0.081-3.485,0.141-5.228
		c0.117-3.437,1.75-6.026,4.85-7.344c3.056-1.3,6.346-1.167,8.593,1.487c1.832,2.165,3.107,2.509,4.849,0.228
		c0.113-0.148,0.329-0.216,0.456-0.358c4.243-4.749,9.124,2.595,14.038-1.032c4.248-3.136,8.281-0.654,12.037,6.126
		c3.037-2.754,6.321-5.106,10.653-3.111c3.957,1.822,4.651,5.414,4.982,9.199c-5.267,7.431-8.69,7.924-15.689,2.123
		c-3.287,4.581-7.083,7.904-13.092,4.392c-0.917-0.535-1.836-0.474-2.726,0.104c-0.488,0.315-0.946,0.707-1.475,0.927
		c-4.55,1.896-7.655-0.465-11.571-2.613c-2.334-1.281-6.119,4.725-10.782,2.397C171.114,677.068,170.153,674.237,169.025,671.358z"
		/>
	<path fill-rule="evenodd" clip-rule="evenodd" fill="#CCEFF3" d="M204.228,406.285c-0.199,8.31-0.199,8.31,8.139,8.318
		c3.127,0.003,6.254-0.017,9.379,0.023c3.433,0.042,5.654,1.57,5.708,5.221c0.056,3.897-2.72,4.174-5.658,4.156
		c-3.517-0.021-7.065,0.294-10.544-0.068c-5.592-0.584-8.167,1.343-7.032,7.152c-0.024,3.688-0.084,7.377-0.062,11.063
		c0.018,2.827-0.618,5.097-4.034,5.159c-3.266,0.058-5.183-1.576-5.283-4.86c-0.136-4.46-0.245-8.938-0.02-13.39
		c0.195-3.859-1.396-5.212-5.118-5.017c-3.873,0.203-7.764-0.01-11.646,0.056c-3.165,0.055-5.833-0.12-5.742-4.471
		c0.083-3.875,2.026-5.127,5.527-4.967c1.355,0.062,2.717-0.012,4.075-0.023c1.547-0.012,3.095-0.029,4.643-0.033
		c8.155-0.028,8.155-0.026,8.161-8.234c0.021-3.084,0.088-6.17,0.048-9.253c-0.044-3.397,1.568-4.914,4.954-4.847
		c3.21,0.064,4.443,1.747,4.425,4.762C204.13,400.116,204.198,403.2,204.228,406.285z"/>
	<path fill-rule="evenodd" clip-rule="evenodd" fill="#CCEFF3" d="M38.726,573.945c1.757,0.021,3.517-0.011,5.27,0.078
		c2.981,0.151,4.28-1.202,4.174-4.187c-0.097-2.729-0.031-5.468,0.051-8.2c0.057-1.9,0.688-3.635,2.909-3.677
		c2-0.036,3.305,1.399,3.681,3.206c0.391,1.884,0.57,3.915,0.313,5.81c-0.783,5.771,1.691,7.85,7.249,7.081
		c1.921-0.266,3.898-0.123,5.851-0.169c2.35,1.41,2.383,3.653,2.153,5.991c-3.347,1.161-6.816,1.396-10.303,1.141
		c-3.352-0.246-5.222,0.921-4.992,4.521c-1.375,2.127-0.78,4.525-0.931,6.819c-0.119,1.803-0.196,3.688-2.606,3.795
		c-2.148,0.094-3.035-1.296-3.348-3.259c-0.599-3.762,1.663-8.494-1.385-11.124c-2.678-2.311-7.149-0.374-10.778-0.943
		c-2.215-0.348-4.542-1.114-3.989-3.925C32.792,573.099,36.188,574.271,38.726,573.945z"/>
	<path fill-rule="evenodd" clip-rule="evenodd" fill="#B38E7F" d="M137.369,671.552c9.432,0.02,18.864,0.04,28.298,0.061
		c-4.866,2.826-9.64,5.829-14.622,8.438C142.888,684.324,137.609,680.96,137.369,671.552z"/>
	<path fill-rule="evenodd" clip-rule="evenodd" fill="#CCEFF3" d="M23.403,617.148c-0.354,3.365-2.44,5.291-5.305,5.514
		c-3.366,0.261-5.689-1.987-5.662-5.331c0.024-2.9,1.902-5.371,5.056-5.465C20.871,611.766,22.59,614.189,23.403,617.148z"/>
	<path fill-rule="evenodd" clip-rule="evenodd" fill="#CCEFF3" d="M78.721,558.056c-0.202,3.176-1.745,5.158-4.975,5.307
		c-3.69,0.169-5.274-2.302-5.368-5.47c-0.095-3.203,2.03-4.941,5.194-4.914C76.797,553.006,78.415,554.948,78.721,558.056z"/>
	<path fill-rule="evenodd" clip-rule="evenodd" fill="#E0E7ED" d="M363.964,185.682c0.396,25.921,0.848,51.844-0.236,77.762
		c-1.621-1.556-1.297-3.587-1.298-5.513c-0.014-22.079-0.016-44.159-0.002-66.239C362.43,189.572,362.079,187.333,363.964,185.682z"
		/>
	<path fill-rule="evenodd" clip-rule="evenodd" fill="#B38E7F" d="M427.408,603.312c-2.549,0.333-5.098,0.666-7.647,0.999
		c-7.006,5.16-14.251,9.76-23.36,10.006c-4.802-0.021-9.604-0.041-14.403-0.062c-5.382,0.001-10.769,0.003-16.156,0.007
		c-3.908,0.024-7.817,0.048-11.726,0.073c-4.011-0.378-7.943-1.138-9.139-5.718c-1.07-4.088,0.581-7.205,4.412-9.092
		c4.712-0.178,9.491,0.639,14.145-0.95c-4.646-1.508-9.409-0.746-14.112-0.9c-2.701-1.504-4.546-3.485-4.728-6.849
		c-0.221-4.089,2.695-6.04,5.718-8.233c-4.302-2.543-6.981-5.665-5.25-10.332c1.672-4.502,5.697-5.459,10.081-5.367
		c2.509,0.053,5.019,0.01,7.527,0.01c-17.207-1.191-34.391-0.037-51.545-1.229c-2.042-1.887-2.915-4.422-3.829-6.933
		c1.378-5.703,5.063-7.455,10.771-7.356c12.036,0.209,24.081-0.173,36.122-0.312c3.831,0.596,7.667,0.461,11.508,0.106
		c4.734,0,9.469,0,14.521,0c-0.835-2.3-2.661-2.813-3.951-3.868c-3.314-2.709-5.441-6.104-5.766-10.404
		c-0.22-2.913-0.494-6.408,2.248-8.001c2.598-1.51,4.257,1.855,6.378,2.953c1.009,0.522,1.806,1.453,2.699,2.198
		c4.79,3.293,9.579,6.586,14.37,9.879c7.413,5.608,14.106,13.083,22.442,16.299c8.327,3.213,6.838,8.397,7.145,14.063
		C426.405,583.968,426.9,593.641,427.408,603.312z"/>
	<path fill-rule="evenodd" clip-rule="evenodd" fill="#B38E7F" d="M391.978,368.739c0.372,0.107,0.835,0.107,1.103,0.336
		c11.778,10.042,25.861,9.989,40.118,9.212c1.354-0.075,2.755-0.219,4.068,0.022c12.467,2.282,22.56-3.335,32.461-9.634
		c1.623,9.131-0.402,17.475-5.216,25.313c-1.184,1.928-1.779,4.217-2.643,6.34c-2.45,3.705-4.437,7.642-5.871,11.852
		c-8.237,16.553-16.476,33.108-25.161,50.561c-8.589-17.275-16.851-33.893-25.113-50.511c-1.432-4.225-3.418-8.177-5.824-11.926
		c-1.177-2.667-2.032-5.542-3.593-7.963C391.586,385.018,390.938,377.06,391.978,368.739z"/>
	<path fill-rule="evenodd" clip-rule="evenodd" fill="#F1298F" d="M399.899,400.305c2.406,3.749,4.393,7.701,5.824,11.926
		c-8.314,2.924-15.817,7.551-23.721,11.333c-10.006,4.79-19.934,9.74-29.871,14.667c-1.273,0.631-2.54,1.321-3.804,0.395
		c-1.205-0.884-0.337-2.147-0.147-3.236c0.398-2.295,0.846-4.583,1.274-6.873C366.27,419.113,383.085,409.708,399.899,400.305z"/>
	<path fill-rule="evenodd" clip-rule="evenodd" fill="#F1298F" d="M455.998,412.18c1.435-4.21,3.421-8.146,5.871-11.852
		c12.686,5.733,24.366,13.307,36.506,20.038c4.474,2.481,9.578,4.108,12.893,8.407c0.303,1.707,0.527,3.434,0.93,5.118
		c0.379,1.589,2.292,3.335,0.297,4.692c-1.646,1.118-3.246-0.551-4.78-1.326c-16.277-8.217-32.555-16.434-48.86-24.597
		C458.028,412.248,456.955,412.329,455.998,412.18z"/>
	<path fill-rule="evenodd" clip-rule="evenodd" fill="#CCEFF3" d="M259.131,445.563c0.762-8.622,0.762-8.619-8.173-8.727
		c-1.166-0.014-2.338,0.017-3.492-0.106c-1.975-0.213-3.276-1.241-3.297-3.355c-0.021-2.099,1.304-3.665,3.193-3.36
		c10.492,1.694,14.476-2.093,13.367-13.032c-0.576-5.682,4.773-2.046,7.531-2.339c-0.448,1.494-1.052,2.96-1.319,4.487
		c-1.697,9.705-0.901,10.646,8.746,10.701c1.366,0.008,2.747-0.05,4.093,0.128c1.759,0.233,2.792,1.398,2.893,3.147
		c0.106,1.881-1.266,3.377-2.778,3.131c-10.686-1.739-15.389,2.158-13.363,13.235c0.302,1.647-1.171,2.963-2.955,3.012
		c-2.061,0.058-3.181-1.126-3.3-3.261C260.206,447.931,260.651,446.423,259.131,445.563z"/>
	<path fill-rule="evenodd" clip-rule="evenodd" fill="#CCEFF3" d="M291.235,413.833c-0.428,3.45-2.173,5.404-5.356,5.405
		c-3.181,0.002-5.232-1.964-5.255-5.1c-0.025-3.393,2.026-5.551,5.531-5.408C289.35,408.861,290.859,411.057,291.235,413.833z"/>
	<path fill-rule="evenodd" clip-rule="evenodd" fill="#C6D1D7" d="M599.363,454.438c0.257,0.485,0.516,0.97,0.772,1.456
		C599.878,455.41,599.62,454.924,599.363,454.438z"/>
	<path fill-rule="evenodd" clip-rule="evenodd" fill="#68C3CB" d="M381.926,534.058c-0.894-0.745-1.69-1.676-2.699-2.198
		c-2.121-1.098-3.78-4.463-6.378-2.953c-2.742,1.593-2.468,5.088-2.248,8.001c0.324,4.301,2.451,7.695,5.766,10.404
		c1.29,1.055,3.116,1.568,3.951,3.868c-5.052,0-9.786,0-14.521,0.003c0.024-16.195,0.051-32.393,0.078-48.59
		c0.083-12.569-0.236-12.895-12.701-12.895c-65.413,0-130.824,0-196.236,0.002c-1.758,0-3.525-0.096-5.27,0.058
		c-3.855,0.34-6.074,2.456-6.251,6.388c-0.098,2.14,0.048,4.291,0.084,6.437c-0.053,37.649-0.11,75.298-0.155,112.947
		c-0.012,9.661,0.742,10.43,10.228,10.432c66.327,0.004,132.654,0.003,198.982,0.002c10.949-0.001,11.451-0.527,11.286-11.701
		c5.388-0.004,10.774-0.006,16.156-0.007c-0.004,6.251-0.187,12.51,0.058,18.751c0.163,4.147-1.493,5.762-5.497,5.299
		c-0.771-0.089-1.562-0.012-2.343-0.012c-79.308,0-158.617-0.058-237.926,0.122c-5.628,0.013-7.179-1.5-7.154-7.144
		c0.219-48.833,0.225-97.67-0.005-146.505c-0.028-5.8,1.797-7.021,7.275-7.011c79.503,0.171,159.008,0.174,238.511-0.003
		c5.563-0.013,7.351,1.354,7.211,7.083C381.727,501.234,381.948,517.649,381.926,534.058z"/>
	<path fill-rule="evenodd" clip-rule="evenodd" fill="#FBFDFD" d="M365.841,614.262c0.165,11.174-0.337,11.7-11.286,11.701
		c-66.328,0.001-132.655,0.002-198.982-0.002c-9.486-0.002-10.24-0.771-10.228-10.432c0.045-37.649,0.102-75.298,0.155-112.947
		c73.458,0.004,146.917,0.007,220.374,0.011c-0.027,16.197-0.054,32.395-0.078,48.59c-3.84,0.352-7.676,0.486-11.507-0.107
		c-0.325-11.062-0.325-11.062-11.434-11.062c-57.978,0-115.954-0.04-173.931,0.029c-13.472,0.017-11.352-1.952-11.833,11.816
		c-0.184,5.271,1.293,7.048,6.828,7.023c47.825-0.215,95.651-0.135,143.477-0.142c0.914,2.511,1.786,5.046,3.829,6.933
		c-4.879-0.55-7.341,1.672-7.353,6.54c-0.029,12.498-0.031,24.997-0.002,37.495c0.008,3.849,1.889,5.529,5.874,5.455
		c9.175-0.17,18.359,0.088,27.534-0.103c5.612-0.116,11.29,0.915,16.839-0.727C358.023,614.31,361.933,614.286,365.841,614.262z
		 M255.636,514.164c-29.076,0-58.151-0.063-87.227,0.029c-13.058,0.041-11.131-1.806-11.274,10.988
		c-0.085,7.715-0.008,7.728,7.538,7.728c59.321,0.004,118.643,0.002,177.964,0.002c11.625,0,11.381-0.007,11.686-11.889
		c0.135-5.239-1.229-7.033-6.777-6.985C316.91,514.303,286.272,514.164,255.636,514.164z M255.49,615.112
		c9.943,0,19.888-0.115,29.827,0.059c3.848,0.067,5.678-0.928,5.61-5.212c-0.204-13.06-0.174-26.124-0.014-39.185
		c0.047-3.89-1.497-5.03-5.197-5.009c-20.079,0.116-40.16,0.125-60.24-0.004c-3.892-0.024-5.047,1.505-5.006,5.2
		c0.142,13.062,0.153,26.126-0.006,39.186c-0.047,3.883,1.492,5.079,5.198,5.019C235.604,615.002,245.547,615.11,255.49,615.112z
		 M206.493,590.441c0-6.63-0.117-13.262,0.047-19.887c0.087-3.552-1.333-4.81-4.83-4.779c-13.259,0.117-26.518,0.121-39.775-0.002
		c-3.542-0.032-4.818,1.313-4.787,4.819c0.118,13.257,0.12,26.517-0.001,39.775c-0.032,3.544,1.33,4.816,4.828,4.785
		c13.257-0.114,26.518-0.116,39.775,0.001c3.537,0.032,4.874-1.318,4.791-4.827C206.382,603.703,206.495,597.07,206.493,590.441z"/>
	<path fill-rule="evenodd" clip-rule="evenodd" fill="#CCEFF3" d="M307.396,558.741c-47.825,0.007-95.651-0.073-143.477,0.142
		c-5.535,0.024-7.012-1.753-6.828-7.023c0.481-13.769-1.639-11.8,11.833-11.816c57.978-0.069,115.954-0.029,173.931-0.029
		c11.108,0,11.108,0,11.434,11.062c-12.041,0.137-24.086,0.519-36.122,0.31C312.458,551.286,308.774,553.038,307.396,558.741z"/>
	<path fill-rule="evenodd" clip-rule="evenodd" fill="#CCEFF3" d="M354.115,614.335c-5.549,1.642-11.227,0.61-16.839,0.727
		c-9.175,0.19-18.358-0.067-27.534,0.103c-3.984,0.074-5.866-1.606-5.874-5.455c-0.029-12.498-0.026-24.997,0.002-37.495
		c0.011-4.868,2.473-7.09,7.353-6.54c17.155,1.192,34.338,0.038,51.545,1.229c-2.509,0-5.019,0.043-7.527-0.01
		c-4.384-0.092-8.409,0.865-10.081,5.367c-1.731,4.667,0.948,7.789,5.25,10.332c-3.022,2.193-5.938,4.145-5.718,8.233
		c0.182,3.363,2.026,5.345,4.728,6.849c-0.011,0.617-0.022,1.233-0.032,1.851c-3.831,1.887-5.482,5.004-4.412,9.092
		C346.172,613.197,350.104,613.957,354.115,614.335z"/>
	<path fill-rule="evenodd" clip-rule="evenodd" fill="#C6D1D7" d="M349.389,599.525c0.01-0.617,0.021-1.233,0.032-1.851
		c4.703,0.154,9.466-0.607,14.112,0.9C358.88,600.164,354.101,599.348,349.389,599.525z"/>
	<path fill-rule="evenodd" clip-rule="evenodd" fill="#F1298F" d="M365.874,502.593c-73.458-0.004-146.916-0.007-220.374-0.011
		c-0.036-2.146-0.182-4.297-0.084-6.437c0.178-3.932,2.396-6.048,6.251-6.388c1.745-0.153,3.512-0.058,5.27-0.058
		c65.412-0.002,130.823-0.002,196.236-0.002C365.638,489.698,365.957,490.023,365.874,502.593z"/>
	<path fill-rule="evenodd" clip-rule="evenodd" fill="#99DADD" d="M255.636,514.164c30.636,0,61.274,0.139,91.909-0.127
		c5.548-0.048,6.912,1.746,6.777,6.985c-0.305,11.882-0.061,11.889-11.686,11.889c-59.321,0-118.643,0.002-177.964-0.002
		c-7.546,0-7.623-0.013-7.538-7.728c0.144-12.794-1.784-10.947,11.274-10.988C197.485,514.102,226.561,514.164,255.636,514.164z"/>
	<path fill-rule="evenodd" clip-rule="evenodd" fill="#CCEFF3" d="M255.49,615.111c-9.942-0.001-19.886-0.109-29.827,0.055
		c-3.706,0.061-5.245-1.136-5.198-5.019c0.159-13.06,0.148-26.124,0.006-39.186c-0.041-3.695,1.114-5.225,5.006-5.2
		c20.08,0.129,40.161,0.12,60.24,0.004c3.7-0.021,5.244,1.119,5.197,5.009c-0.16,13.061-0.19,26.125,0.014,39.185
		c0.067,4.284-1.762,5.279-5.61,5.212C275.377,614.997,265.433,615.112,255.49,615.111z"/>
	<path fill-rule="evenodd" clip-rule="evenodd" fill="#CCEFF3" d="M206.493,590.441c0.001,6.629-0.111,13.262,0.046,19.886
		c0.083,3.509-1.254,4.859-4.791,4.827c-13.257-0.117-26.518-0.115-39.775-0.001c-3.498,0.031-4.86-1.241-4.828-4.785
		c0.121-13.259,0.119-26.519,0.001-39.775c-0.031-3.506,1.246-4.852,4.787-4.819c13.257,0.123,26.517,0.119,39.775,0.002
		c3.497-0.03,4.917,1.228,4.83,4.779C206.376,577.18,206.493,583.812,206.493,590.441z"/>
</g>
</svg>
