<?xml version="1.0" encoding="utf-8"?>
<!-- Generator: Adobe Illustrator 16.0.0, SVG Export Plug-In . SVG Version: 6.00 Build 0)  -->
<!DOCTYPE svg PUBLIC "-//W3C//DTD SVG 1.1//EN" "http://www.w3.org/Graphics/SVG/1.1/DTD/svg11.dtd">
<svg version="1.1" id="Layer_1" xmlns="http://www.w3.org/2000/svg" xmlns:xlink="http://www.w3.org/1999/xlink" x="0px" y="0px"
	 width="760px" height="960px" viewBox="0 0 760 960" enable-background="new 0 0 760 960" xml:space="preserve">
<circle fill="#47EDC7" cx="407.803" cy="499.076" r="268.692"/>
<rect x="344.508" y="675.157" fill="#5C26A3" width="94.65" height="49.579"/>
<rect x="344.508" y="675.157" fill="#3E1277" width="23.859" height="49.579"/>
<path fill="#4D0E8F" d="M502.202,723.537H274.568c-3.375,0-6.134,2.761-6.134,6.136v30.749c0,3.374,2.762,6.134,6.134,6.134h227.634
	V723.537L502.202,723.537z"/>
<path fill="#3E1277" d="M292.293,760.422V729.67c0-3.373,2.761-6.133,6.136-6.133h-23.861c-3.375,0-6.134,2.76-6.134,6.133v30.752
	c0,3.374,2.762,6.133,6.134,6.133h23.859C295.054,766.555,292.293,763.796,292.293,760.422z"/>
<path fill="#4D0E8F" d="M656.363,314.919H127.31c-3.375,0-6.137,2.762-6.137,6.137v349.17c0,3.375,2.762,6.135,6.137,6.135h374.893
	V492.657c0-4.641,3.772-8.419,8.416-8.419h151.877V321.056C662.495,317.681,659.736,314.919,656.363,314.919z"/>
<path fill="#FFFFFF" d="M148.107,615.009c0,2.027,1.655,3.681,3.679,3.681h350.417V492.657c0-4.641,3.772-8.419,8.416-8.419h124.947
	V375.085H148.107V615.009z"/>
<path fill="#D9EAFC" d="M171.969,615.009V375.085h-23.862v239.924c0,2.027,1.655,3.681,3.679,3.681h23.862
	C173.623,618.689,171.969,617.032,171.969,615.009z"/>
<circle fill="#5C26A3" cx="391.838" cy="647.414" r="16.563"/>
<path fill="#C3DDF4" d="M502.202,512.352h-64.244c-1.985,0-3.606,1.625-3.606,3.609v71.716c0,1.983,1.621,3.608,3.606,3.608h64.244
	V512.352z"/>
<path fill="#AEC1ED" d="M458.21,587.677v-71.716c0-1.984,1.624-3.609,3.608-3.609h-23.86c-1.985,0-3.606,1.625-3.606,3.609v71.716
	c0,1.983,1.621,3.608,3.606,3.608h23.86C459.834,591.285,458.21,589.66,458.21,587.677z"/>
<path fill="#C3DDF4" d="M510.618,484.238h56.06v-78.62c0-3.31-2.703-6.015-6.012-6.015H223.007c-3.308,0-6.015,2.705-6.015,6.015
	v79.996c0,3.308,2.707,6.013,6.015,6.013h279.267C502.785,487.473,506.33,484.238,510.618,484.238z"/>
<path fill="#AEC1ED" d="M240.854,485.612v-79.997c0-3.307,2.705-6.012,6.012-6.012h-23.859c-3.308,0-6.015,2.705-6.015,6.012v79.997
	c0,3.309,2.707,6.015,6.015,6.015h23.859C243.559,491.627,240.854,488.921,240.854,485.612z"/>
<path fill="#FFAF10" d="M631.885,346.209H151.786c-2.024,0-3.679,1.655-3.679,3.682v26.398h487.458v-26.398
	C635.565,347.865,633.909,346.209,631.885,346.209z"/>
<path fill="#FF9518" d="M175.647,346.209h-23.862c-2.024,0-3.679,1.655-3.679,3.682v26.398h23.859v-26.398
	C171.969,347.865,173.623,346.209,175.647,346.209z"/>
<g>
	<path fill="#EF288F" d="M327.411,531.394H226.194c-4.981,0-9.019-4.039-9.019-9.021c0-4.98,4.038-9.019,9.019-9.019h101.217
		c4.982,0,9.019,4.038,9.019,9.019C336.43,527.354,332.393,531.394,327.411,531.394z"/>
	<path fill="#EF288F" d="M327.411,560.839H226.194c-4.981,0-9.019-4.036-9.019-9.019c0-4.981,4.038-9.019,9.019-9.019h101.217
		c4.982,0,9.019,4.037,9.019,9.019C336.43,556.8,332.393,560.839,327.411,560.839z"/>
	<path fill="#EF288F" d="M327.411,590.286H226.194c-4.981,0-9.019-4.037-9.019-9.019c0-4.984,4.038-9.02,9.019-9.02h101.217
		c4.982,0,9.019,4.035,9.019,9.02C336.43,586.249,332.393,590.286,327.411,590.286z"/>
	<path fill="#EF288F" d="M406.847,531.394h-52.102c-4.979,0-9.019-4.039-9.019-9.021c0-4.98,4.04-9.019,9.019-9.019h52.102
		c4.979,0,9.019,4.038,9.019,9.019C415.865,527.354,411.826,531.394,406.847,531.394z"/>
	<path fill="#EF288F" d="M406.847,560.839h-52.102c-4.979,0-9.019-4.036-9.019-9.019c0-4.981,4.04-9.019,9.019-9.019h52.102
		c4.979,0,9.019,4.037,9.019,9.019C415.865,556.8,411.826,560.839,406.847,560.839z"/>
	<path fill="#EF288F" d="M406.847,590.286h-52.102c-4.979,0-9.019-4.037-9.019-9.019c0-4.984,4.04-9.02,9.019-9.02h52.102
		c4.979,0,9.019,4.035,9.019,9.02C415.865,586.249,411.826,590.286,406.847,590.286z"/>
</g>
<path fill="#5C26A3" d="M727.247,483.037c5.291,0,9.621,4.33,9.621,9.62v290.736c0,5.288-4.33,9.621-9.621,9.621H510.618
	c-5.29,0-9.62-4.333-9.62-9.621V492.657c0-5.29,4.33-9.62,9.62-9.62H727.247L727.247,483.037z"/>
<path fill="#FFFFFF" d="M527.108,755.236c-3.307,0-6.014-2.704-6.014-6.012V507.586c0-3.311,2.707-6.015,6.014-6.015H710.76
	c3.308,0,6.014,2.704,6.014,6.015v241.639c0,3.308-2.706,6.012-6.014,6.012H527.108z"/>
<path fill="#D9EAFC" d="M544.955,749.225V507.586c0-3.311,2.706-6.015,6.012-6.015h-23.858c-3.307,0-6.014,2.704-6.014,6.015
	v241.639c0,3.308,2.707,6.012,6.014,6.012h23.858C547.661,755.236,544.955,752.532,544.955,749.225z"/>
<path fill="#4D0E8F" d="M607.677,779.29c-3.307,0-6.014-2.708-6.014-6.016v-2.337c0-3.309,2.707-6.014,6.014-6.014h22.515
	c3.307,0,6.014,2.705,6.014,6.014v2.337c0,3.308-2.707,6.016-6.014,6.016H607.677z"/>
<path fill="#FFAF10" d="M716.773,524.77v-17.184c0-3.311-2.706-6.015-6.014-6.015H527.108c-3.307,0-6.014,2.704-6.014,6.015v17.184
	H716.773L716.773,524.77z"/>
<path fill="#FF9518" d="M550.967,501.571h-23.858c-3.307,0-6.014,2.704-6.014,6.015v17.184h23.86v-17.184
	C544.955,504.275,547.661,501.571,550.967,501.571z"/>
<g>
	<path fill="#EF288F" d="M659.923,634.755h-81.977c-4.979,0-9.02-4.037-9.02-9.02c0-4.981,4.04-9.02,9.02-9.02h81.977
		c4.979,0,9.019,4.038,9.019,9.02C668.941,630.718,664.901,634.755,659.923,634.755z"/>
	<path fill="#EF288F" d="M659.923,662.566h-81.977c-4.979,0-9.02-4.038-9.02-9.02c0-4.982,4.04-9.02,9.02-9.02h81.977
		c4.979,0,9.019,4.037,9.019,9.02C668.941,658.528,664.901,662.566,659.923,662.566z"/>
	<path fill="#EF288F" d="M659.923,690.374h-81.977c-4.979,0-9.02-4.038-9.02-9.019c0-4.982,4.04-9.019,9.02-9.019h81.977
		c4.979,0,9.019,4.036,9.019,9.019C668.941,686.336,664.901,690.374,659.923,690.374z"/>
</g>
<path fill="#C3DDF4" d="M698.094,595.46c0,3.309-2.705,6.013-6.013,6.013H545.788c-3.309,0-6.014-2.704-6.014-6.013v-49.596
	c0-3.309,2.705-6.013,6.014-6.013h146.293c3.308,0,6.013,2.704,6.013,6.013V595.46z"/>
<path fill="#AEC1ED" d="M563.635,595.46v-49.596c0-3.309,2.706-6.013,6.012-6.013h-23.858c-3.309,0-6.014,2.704-6.014,6.013v49.596
	c0,3.309,2.705,6.013,6.014,6.013h23.858C566.341,601.473,563.635,598.769,563.635,595.46z"/>
<path fill="#C3DDF4" d="M676.449,736.348c0,3.308-2.706,6.012-6.013,6.012H567.43c-3.308,0-6.011-2.704-6.011-6.012v-20.335
	c0-3.307,2.703-6.013,6.011-6.013h103.007c3.307,0,6.013,2.706,6.013,6.013V736.348L676.449,736.348z"/>
<path fill="#AEC1ED" d="M585.279,736.348v-20.335c0-3.307,2.706-6.013,6.014-6.013H567.43c-3.308,0-6.011,2.706-6.011,6.013v20.335
	c0,3.308,2.703,6.012,6.011,6.012h23.863C587.985,742.359,585.279,739.655,585.279,736.348z"/>
<g>
	<path fill="#C3DDF4" d="M158.2,303.973c0-3.154,2.584-5.737,5.74-5.737h147.994v-71.925c0-3.734-3.055-6.788-6.787-6.788H22.816
		c-3.733,0-6.787,3.054-6.787,6.788v396.277H158.2V303.973z"/>
	<path fill="#AEC1ED" d="M48.394,219.522H22.816c-3.733,0-6.787,3.054-6.787,6.788v396.277h25.579V226.311
		C41.608,222.576,44.662,219.522,48.394,219.522z"/>
	<path fill="#C3DDF4" d="M395.039,508.231c0-6.706,5.443-12.162,12.143-12.188v-193.36c0-3.154-2.582-5.737-5.738-5.737H162.651
		c-3.156,0-5.74,2.583-5.74,5.737v319.904h238.126V508.231H395.039z"/>
	<path fill="#D9EAFC" d="M188.23,296.946h-25.579c-3.156,0-5.74,2.583-5.74,5.737v319.904h25.578V302.684
		C182.49,299.528,185.073,296.946,188.23,296.946z"/>
	<path fill="#4D0E8F" d="M211.851,426.338c-2.787,0-5.438-1.203-7.273-3.3l-15.468-17.669c-3.519-4.018-3.112-10.125,0.906-13.644
		c4.016-3.517,10.124-3.11,13.642,0.906l8.193,9.36l13.027-14.882c3.518-4.018,9.625-4.424,13.642-0.906
		c4.018,3.518,4.424,9.626,0.906,13.644l-20.301,23.191C217.291,425.134,214.64,426.338,211.851,426.338z"/>
	<g>
		<path fill="#EF288F" d="M367.711,402.042H264.165c-5.338,0-9.668-4.327-9.668-9.668c0-5.34,4.33-9.668,9.668-9.668h103.547
			c5.34,0,9.668,4.328,9.668,9.668C377.379,397.713,373.051,402.042,367.711,402.042z"/>
		<path fill="#EF288F" d="M367.711,428.548H264.165c-5.338,0-9.668-4.327-9.668-9.668s4.33-9.668,9.668-9.668h103.547
			c5.34,0,9.668,4.327,9.668,9.668S373.051,428.548,367.711,428.548z"/>
	</g>
	<path fill="#4D0E8F" d="M211.851,505.854c-2.787,0-5.438-1.203-7.273-3.299l-15.468-17.668c-3.519-4.019-3.112-10.126,0.906-13.643
		c4.019-3.518,10.126-3.11,13.642,0.905l8.193,9.359l13.027-14.882c3.518-4.017,9.625-4.423,13.642-0.906
		c4.018,3.518,4.424,9.626,0.906,13.644l-20.301,23.19C217.291,504.651,214.64,505.854,211.851,505.854z"/>
	<g>
		<path fill="#EF288F" d="M367.711,481.558H264.165c-5.338,0-9.668-4.327-9.668-9.668c0-5.34,4.33-9.667,9.668-9.667h103.547
			c5.34,0,9.668,4.328,9.668,9.667C377.379,477.23,373.051,481.558,367.711,481.558z"/>
		<path fill="#EF288F" d="M367.711,508.065H264.165c-5.338,0-9.668-4.328-9.668-9.668c0-5.341,4.33-9.668,9.668-9.668h103.547
			c5.34,0,9.668,4.327,9.668,9.668C377.379,503.736,373.051,508.065,367.711,508.065z"/>
	</g>
	<path fill="#4D0E8F" d="M211.851,585.371L211.851,585.371c-2.787,0-5.438-1.204-7.273-3.3l-15.468-17.669
		c-3.519-4.019-3.112-10.126,0.906-13.644c4.016-3.517,10.124-3.109,13.642,0.906l8.193,9.359l13.027-14.881
		c3.518-4.018,9.625-4.423,13.642-0.906c4.018,3.519,4.424,9.626,0.906,13.644l-20.301,23.19
		C217.291,584.167,214.64,585.371,211.851,585.371z"/>
	<g>
		<path fill="#EF288F" d="M367.711,561.075H264.165c-5.338,0-9.668-4.327-9.668-9.668s4.33-9.668,9.668-9.668h103.547
			c5.34,0,9.668,4.327,9.668,9.668C377.379,556.746,373.051,561.075,367.711,561.075z"/>
		<path fill="#EF288F" d="M329.649,587.581h-65.484c-5.34,0-9.668-4.328-9.668-9.668c0-5.341,4.328-9.668,9.668-9.668h65.484
			c5.34,0,9.668,4.327,9.668,9.668C339.317,583.253,334.989,587.581,329.649,587.581z"/>
	</g>
	<g>
		<path fill="#4D0E8F" d="M128.998,319.889H53.561c-5.339,0-9.668-4.327-9.668-9.668c0-5.34,4.329-9.668,9.668-9.668h75.438
			c5.34,0,9.668,4.328,9.668,9.668C138.666,315.562,134.337,319.889,128.998,319.889z"/>
		<path fill="#4D0E8F" d="M128.998,346.757H53.561c-5.339,0-9.668-4.327-9.668-9.668s4.329-9.668,9.668-9.668h75.438
			c5.34,0,9.668,4.327,9.668,9.668S134.337,346.757,128.998,346.757z"/>
		<path fill="#4D0E8F" d="M128.998,373.625H53.561c-5.339,0-9.668-4.328-9.668-9.668c0-5.341,4.329-9.668,9.668-9.668h75.438
			c5.34,0,9.668,4.327,9.668,9.668C138.667,369.297,134.337,373.625,128.998,373.625z"/>
		<path fill="#4D0E8F" d="M128.998,424.532H53.561c-5.339,0-9.668-4.327-9.668-9.668c0-5.34,4.329-9.668,9.668-9.668h75.438
			c5.34,0,9.668,4.328,9.668,9.668C138.666,420.205,134.337,424.532,128.998,424.532z"/>
		<path fill="#4D0E8F" d="M128.998,451.401H53.561c-5.339,0-9.668-4.327-9.668-9.668c0-5.34,4.329-9.668,9.668-9.668h75.438
			c5.34,0,9.668,4.328,9.668,9.668C138.666,447.073,134.337,451.401,128.998,451.401z"/>
		<path fill="#4D0E8F" d="M128.998,478.271H53.561c-5.339,0-9.668-4.327-9.668-9.668c0-5.34,4.329-9.667,9.668-9.667h75.438
			c5.34,0,9.668,4.327,9.668,9.667C138.666,473.942,134.337,478.271,128.998,478.271z"/>
		<path fill="#4D0E8F" d="M128.998,529.179H53.561c-5.339,0-9.668-4.327-9.668-9.668s4.329-9.668,9.668-9.668h75.438
			c5.34,0,9.668,4.327,9.668,9.668C138.666,524.85,134.337,529.179,128.998,529.179z"/>
		<path fill="#4D0E8F" d="M128.998,556.045H53.561c-5.339,0-9.668-4.327-9.668-9.668s4.329-9.668,9.668-9.668h75.438
			c5.34,0,9.668,4.327,9.668,9.668C138.666,551.718,134.337,556.045,128.998,556.045z"/>
		<path fill="#4D0E8F" d="M128.998,582.913H53.561c-5.339,0-9.668-4.327-9.668-9.668s4.329-9.668,9.668-9.668h75.438
			c5.34,0,9.668,4.327,9.668,9.668C138.666,578.586,134.337,582.913,128.998,582.913z"/>
		<path fill="#4D0E8F" d="M334.159,345.205H229.935c-5.34,0-9.668-4.327-9.668-9.668c0-5.34,4.328-9.668,9.668-9.668h104.224
			c5.34,0,9.668,4.328,9.668,9.668C343.827,340.877,339.499,345.205,334.159,345.205z"/>
	</g>
	<path fill="#FFFFFF" d="M289.508,272.374c0,3.545-2.9,6.445-6.445,6.445H49.742c-3.545,0-6.445-2.9-6.445-6.445v-18.047
		c0-3.545,2.9-6.445,6.445-6.445h233.321c3.545,0,6.445,2.9,6.445,6.445V272.374z"/>
</g>
</svg>
